<?xml version="1.0" standalone="no"?>
<!DOCTYPE svg PUBLIC "-//W3C//DTD SVG 20010904//EN"
 "http://www.w3.org/TR/2001/REC-SVG-20010904/DTD/svg10.dtd">
<svg version="1.0" xmlns="http://www.w3.org/2000/svg"
 width="512.000000pt" height="512.000000pt" viewBox="0 0 512.000000 512.000000"
 preserveAspectRatio="xMidYMid meet">

<g transform="translate(0.000000,512.000000) scale(0.100000,-0.100000)"
fill="#000000" stroke="none">
<path d="M2605 4854 c-22 -2 -110 -8 -195 -14 -655 -46 -1202 -192 -1526 -405
-93 -62 -217 -188 -256 -261 -90 -167 -73 -351 46 -508 20 -25 36 -50 36 -55
0 -4 -14 -25 -30 -46 -47 -59 -88 -154 -101 -233 -21 -126 13 -258 97 -375 35
-49 35 -49 16 -71 -95 -104 -141 -280 -108 -419 18 -75 61 -168 101 -215 l26
-31 -34 -48 c-135 -189 -139 -402 -12 -584 l44 -63 -33 -45 c-141 -194 -138
-413 9 -617 15 -20 14 -20 -37 -13 -108 15 -191 11 -238 -13 -155 -79 -171
-316 -27 -413 44 -30 88 -42 254 -65 555 -77 1005 -105 1577 -97 714 10 1145
71 1596 225 345 118 575 273 669 451 92 174 82 370 -28 530 l-40 60 44 66
c115 171 115 389 0 561 l-44 66 39 56 c22 32 51 89 65 127 54 153 20 355 -81
474 l-27 32 30 42 c73 102 103 190 103 302 0 120 -30 210 -102 311 l-30 42 35
48 c131 184 139 385 22 561 l-35 53 117 -6 c112 -6 120 -5 163 18 169 92 169
342 -1 429 -85 43 -650 110 -1169 139 -165 9 -832 12 -935 4z m835 -144 c345
-17 694 -48 1000 -91 231 -32 250 -42 250 -124 0 -44 -23 -78 -59 -90 -11 -3
-116 5 -233 19 -1394 165 -2318 130 -2988 -111 -469 -169 -600 -344 -397 -530
329 -300 1551 -450 2352 -288 456 92 803 273 830 434 12 70 -46 158 -151 231
-60 42 -215 118 -319 157 l-90 34 108 -6 c60 -4 184 -14 276 -24 164 -17 169
-18 210 -51 97 -78 162 -192 169 -296 8 -128 -51 -239 -185 -347 -241 -193
-598 -309 -1148 -374 -215 -25 -817 -25 -1030 0 -704 84 -1186 303 -1297 590
-98 251 142 498 647 665 343 114 750 178 1310 205 155 8 551 6 745 -3z m-643
-351 c391 -32 771 -122 1028 -244 107 -50 210 -121 222 -151 5 -15 -61 -94
-79 -94 -5 0 -25 10 -46 23 -59 37 -238 113 -352 151 -319 104 -634 150 -1020
149 -339 0 -610 -36 -900 -118 -180 -52 -408 -144 -482 -196 -26 -19 -26 -19
-57 7 -60 50 -60 63 -5 111 59 53 231 139 374 188 400 138 921 207 1317 174z
m225 -338 c268 -40 537 -114 714 -196 79 -36 79 -36 53 -50 -81 -43 -309 -112
-479 -144 -231 -44 -380 -55 -700 -55 -327 0 -479 12 -757 59 -206 35 -517
117 -546 145 -22 20 279 133 498 185 284 68 449 85 805 80 211 -3 307 -8 412
-24z m-2104 -575 l74 -48 -20 -22 c-145 -158 26 -345 440 -480 230 -76 481
-122 792 -147 221 -17 716 -6 916 21 369 49 618 117 835 228 112 58 217 155
236 220 15 51 2 105 -36 151 l-25 29 47 28 c27 15 65 40 85 56 l37 29 25 -34
c52 -68 71 -126 71 -217 0 -98 -19 -149 -86 -236 -244 -316 -1075 -521 -1959
-483 -811 35 -1447 260 -1596 564 -26 53 -29 70 -29 155 0 80 4 103 24 143 31
64 70 109 84 99 7 -4 45 -29 85 -56z m402 -188 c274 -94 614 -150 1011 -168
583 -25 1197 54 1575 204 l89 35 27 -26 c37 -36 35 -54 -10 -95 -76 -69 -233
-142 -428 -198 -616 -180 -1539 -170 -2124 22 -179 58 -362 156 -390 208 -10
18 -7 26 25 55 l36 34 52 -20 c29 -12 90 -34 137 -51z m-430 -498 c40 -27 77
-51 82 -52 6 -2 -4 -26 -21 -53 -19 -29 -31 -62 -31 -82 0 -197 386 -390 955
-478 249 -38 389 -48 680 -48 278 0 418 9 660 44 492 71 876 232 960 404 33
66 30 107 -10 167 -15 22 -25 41 -23 42 2 2 38 26 81 55 92 61 92 61 139 -38
28 -58 32 -76 33 -151 0 -75 -4 -93 -31 -150 -105 -220 -431 -393 -934 -495
-870 -178 -1980 -58 -2463 265 -93 62 -182 157 -216 230 -22 47 -26 69 -26
150 0 80 4 102 24 140 24 46 60 100 66 100 2 0 36 -22 75 -50z m410 -189 c220
-75 456 -123 770 -158 227 -24 757 -25 980 0 318 36 582 91 800 168 141 51
156 52 183 17 18 -24 19 -31 8 -51 -28 -53 -202 -147 -379 -206 -291 -96 -585
-139 -1002 -148 -371 -8 -618 12 -915 72 -301 61 -582 174 -660 266 l-26 32
33 34 c19 20 39 32 48 29 8 -3 80 -28 160 -55z m-328 -560 c4 -3 -4 -23 -18
-43 -139 -195 186 -422 766 -538 547 -109 1204 -105 1733 11 276 60 536 168
648 268 76 67 107 137 90 200 -6 24 -21 57 -32 73 -12 16 -20 30 -18 32 2 1
22 13 44 26 22 13 56 36 76 52 20 15 39 28 42 28 12 0 67 -102 81 -151 68
-227 -107 -447 -470 -594 -255 -103 -527 -164 -914 -207 -177 -19 -738 -16
-927 5 -832 95 -1335 349 -1351 684 -5 83 11 140 59 214 l30 48 77 -50 c42
-28 80 -54 84 -58z m466 -177 c216 -59 479 -102 761 -124 173 -13 548 -13 722
0 374 29 755 106 998 202 l74 29 31 -30 c26 -27 28 -33 18 -56 -15 -32 -133
-109 -234 -152 -230 -96 -516 -160 -873 -193 -145 -13 -597 -13 -755 0 -478
41 -920 170 -1076 314 l-49 46 36 34 37 34 92 -34 c50 -19 149 -51 218 -70z
m-546 -460 c40 -26 77 -50 82 -55 4 -4 -5 -24 -20 -45 -24 -31 -29 -47 -29
-93 0 -48 5 -63 34 -103 83 -116 299 -226 592 -302 282 -74 534 -105 899 -113
588 -13 1098 67 1446 227 185 85 304 200 304 294 0 13 -13 49 -29 79 l-29 56
80 52 80 53 21 -24 c11 -14 32 -50 46 -80 22 -46 26 -69 26 -140 0 -74 -4 -93
-29 -145 -132 -270 -591 -466 -1296 -552 -208 -26 -822 -25 -1030 0 -483 60
-838 167 -1070 322 -166 110 -240 216 -248 356 -5 89 12 155 59 218 16 23 31
41 34 41 2 0 37 -21 77 -46z m3130 -151 c15 -15 28 -35 28 -44 0 -44 -173
-148 -345 -209 -695 -245 -1833 -218 -2438 58 -77 35 -191 113 -200 136 -8 19
39 76 61 76 10 0 59 -16 110 -35 603 -228 1628 -264 2359 -84 116 28 340 100
373 120 21 12 21 12 52 -18z m-3307 -527 l180 -22 95 -52 c112 -60 286 -128
425 -166 129 -35 126 -34 85 -35 -106 -2 -767 67 -959 100 -83 15 -111 41
-111 101 1 45 12 67 45 86 26 15 30 15 240 -12z"/>
</g>
</svg>
