<?xml version="1.0" standalone="no"?>
<!DOCTYPE svg PUBLIC "-//W3C//DTD SVG 20010904//EN"
 "http://www.w3.org/TR/2001/REC-SVG-20010904/DTD/svg10.dtd">
<svg version="1.0" xmlns="http://www.w3.org/2000/svg"
 width="512.000000pt" height="512.000000pt" viewBox="0 0 512.000000 512.000000"
 preserveAspectRatio="xMidYMid meet">

<g transform="translate(0.000000,512.000000) scale(0.100000,-0.100000)"
fill="#000000" stroke="none">
<path d="M2220 4074 c-516 -33 -779 -69 -1108 -150 -503 -123 -880 -339 -993
-569 l-34 -70 0 -725 0 -725 34 -70 c44 -89 155 -203 274 -280 335 -217 855
-358 1557 -422 276 -25 945 -25 1220 0 586 54 1021 154 1357 312 234 111 407
253 474 391 l34 69 0 725 0 725 -34 70 c-89 181 -355 364 -706 485 -325 112
-687 180 -1165 221 -123 10 -803 20 -910 13z m930 -179 c931 -86 1623 -343
1720 -638 6 -21 10 -41 7 -43 -3 -3 -33 17 -66 44 -237 191 -723 354 -1301
436 -334 48 -515 60 -940 60 -479 0 -731 -19 -1120 -85 -503 -85 -932 -241
-1146 -416 -31 -24 -58 -42 -61 -39 -9 8 19 79 48 122 127 186 521 362 1064
473 216 45 570 87 875 105 145 8 763 -4 920 -19z m-230 -305 c653 -37 1205
-152 1568 -326 132 -62 231 -126 286 -183 l40 -41 -29 -30 -29 -30 -30 21
c-66 43 -227 119 -358 168 -321 120 -775 210 -1283 253 -199 17 -854 16 -1050
0 -727 -63 -1290 -207 -1631 -416 l-41 -25 -28 29 -29 30 40 41 c225 232 888
431 1644 494 310 25 647 31 930 15z m230 -335 c463 -42 909 -133 1188 -244
132 -52 272 -122 266 -133 -3 -5 -33 -22 -66 -39 l-60 -30 -110 41 c-493 185
-1206 282 -1948 267 -671 -15 -1235 -105 -1671 -268 l-107 -40 -60 30 c-33 17
-63 34 -66 39 -6 11 134 81 266 133 334 133 888 233 1453 263 158 8 749 -4
915 -19z m-220 -305 c339 -19 698 -67 975 -130 150 -35 335 -90 335 -100 0
-17 -368 -111 -580 -149 -346 -62 -653 -86 -1100 -86 -447 0 -754 24 -1100 86
-212 38 -580 132 -580 149 0 10 185 65 335 100 496 113 1138 162 1715 130z
m-2521 -195 c450 -291 1314 -453 2306 -432 253 6 525 23 678 43 l47 6 0 -76
c0 -89 19 -79 -191 -101 -618 -63 -1324 -36 -1866 71 -662 130 -1093 352
-1140 586 l-6 33 49 -41 c27 -23 82 -63 123 -89z m4466 88 c-14 -81 -101 -182
-220 -259 -141 -90 -387 -189 -627 -254 l-108 -29 0 80 c0 71 2 79 19 79 35 0
327 88 444 134 188 73 359 169 457 254 19 17 37 31 39 32 2 0 0 -17 -4 -37z
m-4467 -408 c449 -289 1320 -453 2292 -432 248 6 526 24 682 46 l58 8 0 -78
c0 -93 19 -82 -191 -104 -618 -63 -1324 -36 -1866 71 -662 130 -1093 352
-1140 586 l-6 33 49 -41 c27 -23 82 -63 122 -89z m4457 55 c-21 -64 -102 -153
-195 -215 -143 -95 -391 -197 -642 -265 l-108 -29 0 80 c0 78 0 79 28 85 78
17 295 79 385 110 191 66 404 179 506 266 18 16 35 27 38 24 3 -2 -3 -28 -12
-56z m-1105 -625 l0 -555 -22 -4 c-49 -10 -129 -26 -134 -26 -2 0 -3 251 -2
557 l3 558 65 11 c36 6 71 12 78 13 9 1 12 -116 12 -554z m-3352 250 c449
-289 1320 -453 2292 -432 248 6 526 24 682 46 l58 8 0 -78 c0 -93 19 -82 -191
-104 -513 -52 -1119 -42 -1594 26 -530 76 -948 206 -1200 374 -124 82 -194
167 -212 257 l-6 33 49 -41 c27 -23 82 -63 122 -89z m4457 55 c-21 -64 -102
-153 -195 -215 -143 -95 -391 -197 -642 -265 l-108 -29 0 80 c0 78 0 79 28 85
78 17 295 79 385 110 191 66 404 179 506 266 18 16 35 27 38 24 3 -2 -3 -28
-12 -56z m-4456 -375 c448 -289 1319 -453 2291 -432 248 6 526 24 682 46 l59
8 -3 -81 -3 -81 -55 -7 c-248 -31 -457 -42 -815 -42 -573 -1 -960 40 -1402
149 -541 134 -879 330 -920 537 l-6 33 49 -41 c27 -23 82 -63 123 -89z m4461
68 c-48 -145 -246 -286 -574 -408 -96 -35 -336 -105 -363 -105 -10 0 -13 19
-13 75 0 73 0 75 28 80 80 17 350 98 437 130 176 66 359 166 454 247 18 16 35
27 38 24 3 -2 -1 -22 -7 -43z"/>
</g>
</svg>
