<?xml version="1.0" standalone="no"?>
<!DOCTYPE svg PUBLIC "-//W3C//DTD SVG 20010904//EN"
 "http://www.w3.org/TR/2001/REC-SVG-20010904/DTD/svg10.dtd">
<svg version="1.0" xmlns="http://www.w3.org/2000/svg"
 width="512.000000pt" height="512.000000pt" viewBox="0 0 512.000000 512.000000"
 preserveAspectRatio="xMidYMid meet">

<g transform="translate(0.000000,512.000000) scale(0.100000,-0.100000)"
fill="#000000" stroke="none">
<path d="M1762 4941 c-63 -22 -114 -68 -143 -129 -20 -40 -21 -55 -15 -155 19
-329 19 -441 2 -527 -45 -222 -209 -514 -390 -696 -102 -102 -172 -143 -293
-171 l-73 -17 0 -768 0 -768 23 -4 c12 -3 58 -7 102 -10 107 -8 188 -28 537
-135 163 -50 300 -91 305 -91 5 0 23 28 39 62 16 35 48 82 71 105 23 24 52 65
64 93 28 64 101 132 165 153 27 9 148 30 269 47 121 17 229 34 241 36 15 4 49
64 135 237 123 249 154 292 238 330 67 31 180 30 241 -2 25 -13 57 -34 72 -48
l26 -25 17 33 c23 44 16 125 -14 168 -26 36 -88 71 -126 71 -33 0 -81 24 -89
45 -24 64 8 114 83 126 68 10 117 42 141 90 43 84 10 188 -73 228 -42 20 -57
21 -500 21 -290 0 -474 4 -507 11 -72 15 -139 64 -177 128 -44 74 -49 119 -28
285 34 280 30 685 -10 1015 -20 162 -68 233 -183 267 -59 18 -86 17 -150 -5z"/>
<path d="M199 3391 l-24 -19 0 -897 0 -897 24 -19 c21 -17 41 -19 228 -19 203
0 204 0 228 25 l25 24 0 886 0 886 -25 24 c-24 25 -25 25 -228 25 -187 0 -207
-2 -228 -19z"/>
<path d="M3097 2374 c-21 -12 -56 -73 -162 -284 -133 -266 -135 -269 -172
-280 -21 -5 -153 -26 -293 -45 -278 -39 -291 -44 -324 -109 -35 -70 -21 -90
210 -312 112 -109 207 -208 210 -220 3 -12 -15 -142 -40 -288 -25 -146 -46
-277 -46 -291 0 -63 55 -115 121 -115 23 0 111 41 281 130 154 81 258 130 276
130 19 0 122 -49 275 -130 268 -142 298 -151 352 -108 59 46 59 58 10 348 -25
143 -45 278 -45 299 0 36 10 48 200 236 111 109 207 207 215 219 34 48 5 141
-51 164 -16 7 -149 30 -296 51 -146 22 -276 44 -287 51 -14 7 -69 106 -151
271 -108 215 -136 263 -163 279 -38 24 -81 25 -120 4z"/>
<path d="M1930 1299 c-41 -83 -82 -157 -91 -165 -9 -8 -95 -25 -224 -44 -312
-45 -313 -49 -90 -270 142 -141 155 -157 155 -190 0 -19 -13 -109 -30 -200
-36 -202 -37 -224 -8 -244 12 -9 29 -16 37 -16 14 0 283 133 345 171 54 33 83
25 268 -71 95 -50 183 -93 196 -96 33 -9 72 20 72 55 0 24 -6 30 -42 40 -82
25 -140 75 -183 160 -32 64 -30 124 15 389 l43 250 -194 191 c-107 105 -194
191 -194 191 0 0 -34 -68 -75 -151z"/>
<path d="M4113 1257 l-192 -192 45 -255 c30 -172 42 -268 38 -295 -19 -122
-111 -226 -221 -250 -26 -5 -33 -12 -33 -30 0 -25 42 -65 67 -65 8 0 97 43
197 95 102 53 195 95 211 95 15 0 108 -42 212 -96 196 -102 217 -107 248 -60
14 21 13 40 -20 223 -19 110 -35 209 -35 219 0 11 64 81 160 174 167 161 177
177 143 219 -16 18 -47 25 -223 50 -113 16 -213 33 -223 36 -10 5 -52 75 -98
166 -43 88 -80 159 -82 158 -1 -1 -88 -87 -194 -192z"/>
</g>
</svg>
