<?xml version="1.0" standalone="no"?>
<!DOCTYPE svg PUBLIC "-//W3C//DTD SVG 20010904//EN"
 "http://www.w3.org/TR/2001/REC-SVG-20010904/DTD/svg10.dtd">
<svg version="1.0" xmlns="http://www.w3.org/2000/svg"
 width="512.000000pt" height="512.000000pt" viewBox="0 0 512.000000 512.000000"
 preserveAspectRatio="xMidYMid meet">

<g transform="translate(0.000000,512.000000) scale(0.100000,-0.100000)"
fill="#000000" stroke="none">
<path d="M1235 4941 c-98 -44 -141 -115 -133 -219 2 -33 12 -71 21 -85 9 -13
87 -90 174 -169 156 -143 194 -190 226 -281 8 -22 13 -245 17 -724 l5 -691
417 216 418 217 0 440 c0 242 5 467 10 500 19 119 54 169 223 320 83 76 160
150 171 166 67 106 19 256 -99 310 -37 17 -84 19 -725 19 -642 0 -688 -2 -725
-19z"/>
<path d="M3988 4350 c-101 -30 -127 -73 -189 -311 -56 -216 -81 -272 -150
-332 -31 -28 -220 -133 -569 -317 -287 -151 -537 -282 -554 -290 -75 -35
-1135 -596 -1209 -640 -241 -143 -450 -304 -660 -510 -200 -195 -387 -423
-387 -470 0 -10 9 -29 21 -44 19 -24 26 -26 97 -26 326 0 797 99 1152 242 176
71 269 119 1420 725 564 297 1043 546 1065 553 22 7 72 13 110 13 62 -1 93
-10 273 -77 111 -42 217 -76 235 -76 48 0 138 49 165 89 31 47 45 106 40 171
-4 49 -35 114 -298 615 -161 308 -306 579 -321 602 -50 72 -155 109 -241 83z"/>
<path d="M2310 1854 c-108 -63 -593 -304 -674 -335 -48 -18 -91 -39 -93 -47
-8 -20 16 -255 38 -372 45 -235 121 -486 218 -715 68 -158 91 -198 124 -209
35 -13 74 1 98 34 32 43 129 278 184 445 114 344 175 738 175 1133 0 104 -1
106 -70 66z"/>
</g>
</svg>
