<?xml version="1.0" standalone="no"?>
<!DOCTYPE svg PUBLIC "-//W3C//DTD SVG 20010904//EN"
 "http://www.w3.org/TR/2001/REC-SVG-20010904/DTD/svg10.dtd">
<svg version="1.0" xmlns="http://www.w3.org/2000/svg"
 width="512.000000pt" height="512.000000pt" viewBox="0 0 512.000000 512.000000"
 preserveAspectRatio="xMidYMid meet">

<g transform="translate(0.000000,512.000000) scale(0.100000,-0.100000)"
fill="#000000" stroke="none">
<path d="M83 4559 c-30 -15 -48 -33 -62 -63 -20 -40 -21 -60 -21 -381 0 -322
1 -341 21 -381 21 -45 81 -84 129 -84 48 0 108 39 129 84 20 39 21 60 21 294
l0 252 252 0 c234 0 255 1 294 21 45 21 84 81 84 129 0 48 -39 108 -84 129
-40 20 -59 21 -382 21 -323 0 -341 -1 -381 -21z"/>
<path d="M4273 4559 c-44 -22 -83 -82 -83 -129 0 -48 39 -108 84 -129 39 -20
60 -21 294 -21 l252 0 0 -252 c0 -234 1 -255 21 -294 21 -45 81 -84 129 -84
48 0 108 39 129 84 20 40 21 59 21 381 0 322 -1 341 -21 381 -15 31 -32 48
-63 63 -40 20 -59 21 -382 21 -323 0 -341 -1 -381 -21z"/>
<path d="M1190 3335 l0 -475 -457 0 c-416 0 -461 -2 -493 -18 -107 -53 -107
-207 0 -263 32 -18 66 -19 492 -19 l458 0 0 -337 c0 -311 2 -341 19 -380 22
-47 79 -83 131 -83 52 0 109 36 131 83 17 39 19 69 19 380 l0 337 150 0 150 0
0 -67 c0 -91 26 -145 84 -172 53 -26 79 -26 132 0 58 27 84 81 84 172 l0 67
150 0 150 0 0 -67 c0 -92 26 -144 86 -174 33 -16 56 -20 86 -16 87 12 128 71
128 185 l0 72 150 0 150 0 0 -72 c0 -126 47 -183 150 -183 103 0 150 57 150
183 l0 72 150 0 150 0 0 -342 c0 -383 1 -390 69 -435 71 -48 175 -20 213 57
16 31 18 71 18 378 l0 342 484 0 483 0 33 23 c54 36 74 71 74 127 0 56 -20 91
-74 128 l-33 22 -483 0 -484 0 0 475 0 475 -150 0 -150 0 0 -475 0 -475 -150
0 -150 0 0 475 0 475 -150 0 -150 0 0 -475 0 -475 -150 0 -150 0 0 475 0 475
-150 0 -150 0 0 -475 0 -475 -150 0 -150 0 0 475 0 475 -150 0 -150 0 0 -475
0 -475 -150 0 -150 0 0 475 0 475 -150 0 -150 0 0 -475z"/>
<path d="M1873 2069 c-111 -55 -110 -245 1 -298 23 -12 53 -21 66 -21 48 0
108 39 129 84 44 89 15 198 -63 235 -53 26 -80 26 -133 0z"/>
<path d="M2473 2069 c-112 -55 -110 -245 3 -300 112 -53 214 19 214 151 0 135
-103 206 -217 149z"/>
<path d="M3071 2073 c-55 -29 -75 -64 -79 -141 -4 -76 14 -122 61 -156 40 -29
134 -29 174 0 84 62 85 226 1 287 -38 28 -114 33 -157 10z"/>
<path d="M83 1449 c-30 -15 -48 -33 -62 -63 -20 -40 -21 -60 -21 -381 0 -322
1 -341 21 -381 15 -31 32 -48 63 -63 40 -20 59 -21 381 -21 322 0 341 1 381
21 45 21 84 81 84 129 0 48 -39 108 -84 129 -39 20 -60 21 -294 21 l-252 0 0
252 c0 234 -1 255 -21 294 -15 31 -32 48 -63 63 -53 26 -80 26 -133 0z"/>
<path d="M4903 1449 c-30 -15 -48 -33 -62 -63 -20 -39 -21 -61 -21 -294 l0
-252 -252 0 c-234 0 -255 -1 -294 -21 -45 -21 -84 -81 -84 -129 0 -48 39 -108
84 -129 40 -20 59 -21 381 -21 322 0 341 1 381 21 31 15 48 32 63 63 20 40 21
59 21 381 0 322 -1 341 -21 381 -15 31 -32 48 -63 63 -53 26 -80 26 -133 0z"/>
</g>
</svg>
