<?xml version="1.0" standalone="no"?>
<!DOCTYPE svg PUBLIC "-//W3C//DTD SVG 20010904//EN"
 "http://www.w3.org/TR/2001/REC-SVG-20010904/DTD/svg10.dtd">
<svg version="1.0" xmlns="http://www.w3.org/2000/svg"
 width="512.000000pt" height="512.000000pt" viewBox="0 0 512.000000 512.000000"
 preserveAspectRatio="xMidYMid meet">

<g transform="translate(0.000000,512.000000) scale(0.100000,-0.100000)"
fill="#000000" stroke="none">
<path d="M640 5107 c-49 -16 -133 -102 -148 -153 -17 -59 -17 -1049 0 -1108
16 -55 99 -138 154 -154 24 -7 100 -12 178 -12 l136 0 0 -80 0 -80 -136 0
c-78 0 -154 -5 -178 -12 -55 -16 -138 -99 -154 -154 -17 -59 -17 -1049 0
-1108 16 -55 99 -138 154 -154 24 -7 100 -12 178 -12 l136 0 0 -80 0 -80 -136
0 c-78 0 -154 -5 -178 -12 -55 -16 -138 -99 -154 -154 -17 -59 -17 -1049 0
-1108 16 -55 99 -138 154 -154 32 -9 375 -12 1456 -12 l1415 0 7 -41 c15 -94
94 -196 216 -279 69 -47 211 -119 288 -146 51 -18 53 -18 105 0 93 32 250 116
322 171 77 59 119 106 156 175 24 44 24 49 27 376 3 306 2 332 -15 352 -13 16
-85 44 -238 95 l-220 74 -5 244 c-3 158 -10 254 -17 271 -7 16 -31 48 -53 72
-59 64 -103 76 -272 76 l-138 0 0 80 0 80 138 0 c173 0 214 12 275 80 24 26
49 66 55 88 17 56 17 1048 0 1104 -6 22 -31 62 -55 88 -61 68 -102 80 -275 80
l-138 0 0 80 0 80 138 0 c173 0 214 12 275 80 24 26 49 66 55 88 17 56 17
1048 0 1104 -6 22 -31 62 -55 88 -78 87 76 80 -1777 79 -1166 -1 -1651 -4
-1676 -12z m3335 -172 l25 -24 0 -511 0 -511 -25 -24 -24 -25 -1631 0 -1631 0
-24 25 -25 24 0 511 0 511 25 24 24 25 1631 0 1631 0 24 -25z m-455 -1335 l0
-80 -1200 0 -1200 0 0 80 0 80 1200 0 1200 0 0 -80z m455 -265 l25 -24 0 -511
0 -511 -25 -24 -24 -25 -1631 0 -1631 0 -24 25 -25 24 0 511 0 511 25 24 24
25 1631 0 1631 0 24 -25z m-455 -1335 l0 -80 -1200 0 -1200 0 0 80 0 80 1200
0 1200 0 0 -80z m456 -265 l24 -24 -2 -227 -3 -227 -220 -74 c-150 -49 -226
-80 -237 -94 -16 -19 -18 -46 -18 -235 l0 -214 -1415 0 -1416 0 -24 25 -25 24
0 511 0 511 25 24 24 25 1631 0 1631 0 25 -25z m309 -688 l190 -64 0 -275 0
-275 -28 -37 c-16 -20 -54 -57 -85 -81 -63 -50 -249 -145 -282 -145 -33 0
-221 97 -283 146 -30 23 -68 60 -84 80 l-28 37 0 275 0 275 185 63 c102 34
194 63 205 63 11 1 106 -28 210 -62z"/>
<path d="M3065 4775 c-16 -15 -25 -36 -25 -55 0 -19 9 -40 25 -55 15 -16 36
-25 55 -25 19 0 40 9 55 25 16 15 25 36 25 55 0 19 -9 40 -25 55 -15 16 -36
25 -55 25 -19 0 -40 -9 -55 -25z"/>
<path d="M3385 4775 c-16 -15 -25 -36 -25 -55 0 -19 9 -40 25 -55 23 -24 29
-25 160 -25 l135 0 0 -295 0 -296 25 -24 c15 -16 36 -25 55 -25 19 0 40 9 55
25 l25 24 0 351 0 351 -25 24 c-24 25 -26 25 -215 25 -189 0 -191 0 -215 -25z"/>
<path d="M1120 4627 c-49 -16 -133 -102 -148 -153 -28 -94 -8 -169 63 -239
102 -103 243 -101 338 5 93 103 90 228 -8 325 -70 71 -152 91 -245 62z m135
-172 c50 -49 15 -135 -55 -135 -41 0 -80 39 -80 80 0 41 39 80 80 80 19 0 40
-9 55 -25z"/>
<path d="M1760 4627 c-49 -16 -133 -102 -148 -153 -28 -94 -8 -169 63 -239 51
-52 102 -75 165 -75 63 0 114 23 165 75 102 101 102 229 0 330 -70 71 -152 91
-245 62z m135 -172 c50 -49 15 -135 -55 -135 -41 0 -80 39 -80 80 0 41 39 80
80 80 19 0 40 -9 55 -25z"/>
<path d="M3085 3188 c-51 -27 -60 -84 -20 -123 40 -40 96 -30 123 22 18 34 14
52 -17 84 -31 31 -53 35 -86 17z"/>
<path d="M3385 3175 c-16 -15 -25 -36 -25 -55 0 -19 9 -40 25 -55 23 -24 29
-25 160 -25 l135 0 0 -255 0 -256 25 -24 c32 -33 78 -33 110 0 l25 24 0 311 0
311 -25 24 c-24 25 -26 25 -215 25 -189 0 -191 0 -215 -25z"/>
<path d="M1120 3027 c-49 -16 -133 -102 -148 -153 -28 -94 -8 -169 63 -239
102 -103 243 -101 338 5 93 103 90 228 -8 325 -70 71 -152 91 -245 62z m135
-172 c50 -49 15 -135 -55 -135 -41 0 -80 39 -80 80 0 41 39 80 80 80 19 0 40
-9 55 -25z"/>
<path d="M1760 3027 c-49 -16 -133 -102 -148 -153 -28 -94 -8 -169 63 -239
101 -102 229 -102 330 0 102 101 102 229 0 330 -70 71 -152 91 -245 62z m135
-172 c50 -49 15 -135 -55 -135 -41 0 -80 39 -80 80 0 41 39 80 80 80 19 0 40
-9 55 -25z"/>
<path d="M3083 1590 c-47 -20 -57 -87 -18 -125 69 -70 180 29 118 104 -21 24
-68 35 -100 21z"/>
<path d="M3385 1575 c-16 -15 -25 -36 -25 -55 0 -19 9 -40 25 -55 24 -25 26
-25 215 -25 189 0 191 0 215 25 16 15 25 36 25 55 0 19 -9 40 -25 55 -24 25
-26 25 -215 25 -189 0 -191 0 -215 -25z"/>
<path d="M1120 1427 c-49 -16 -133 -102 -148 -153 -28 -94 -8 -169 63 -239
101 -102 229 -102 330 0 98 97 101 222 8 325 -65 72 -158 97 -253 67z m135
-172 c16 -15 25 -36 25 -55 0 -19 -9 -40 -25 -55 -15 -16 -36 -25 -55 -25 -19
0 -40 9 -55 25 -16 15 -25 36 -25 55 0 19 9 40 25 55 15 16 36 25 55 25 19 0
40 -9 55 -25z"/>
<path d="M1760 1427 c-49 -16 -133 -102 -148 -153 -28 -94 -8 -169 63 -239
101 -102 229 -102 330 0 98 97 101 222 8 325 -65 72 -158 97 -253 67z m135
-172 c50 -49 15 -135 -55 -135 -19 0 -40 9 -55 25 -16 15 -25 36 -25 55 0 19
9 40 25 55 15 16 36 25 55 25 19 0 40 -9 55 -25z"/>
<path d="M4025 915 c-51 -50 -18 -112 75 -143 l55 -19 5 -132 c5 -130 6 -133
33 -157 37 -32 62 -30 98 5 l29 29 0 170 c0 147 -2 173 -17 191 -20 23 -180
81 -225 81 -17 0 -39 -10 -53 -25z"/>
<path d="M4365 2868 c-51 -27 -60 -84 -20 -123 40 -40 96 -30 123 22 18 34 14
52 -17 84 -31 31 -53 35 -86 17z"/>
<path d="M4365 2548 c-51 -27 -60 -84 -20 -123 40 -40 96 -30 123 22 18 34 14
52 -17 84 -31 31 -53 35 -86 17z"/>
<path d="M4345 2215 l-25 -24 0 -351 0 -351 25 -24 c15 -16 36 -25 55 -25 19
0 40 9 55 25 l25 24 0 351 0 351 -25 24 c-15 16 -36 25 -55 25 -19 0 -40 -9
-55 -25z"/>
<path d="M1865 295 c-50 -49 -15 -135 55 -135 20 0 40 9 57 26 21 21 24 32 19
62 -11 70 -83 96 -131 47z"/>
<path d="M2185 295 c-50 -49 -15 -135 55 -135 41 0 80 39 80 80 0 41 -39 80
-80 80 -19 0 -40 -9 -55 -25z"/>
<path d="M2505 295 c-16 -15 -25 -36 -25 -55 0 -19 9 -40 25 -55 l24 -25 391
0 391 0 24 25 c16 15 25 36 25 55 0 19 -9 40 -25 55 l-24 25 -391 0 -391 0
-24 -25z"/>
</g>
</svg>
