<?xml version="1.0" standalone="no"?>
<!DOCTYPE svg PUBLIC "-//W3C//DTD SVG 20010904//EN"
 "http://www.w3.org/TR/2001/REC-SVG-20010904/DTD/svg10.dtd">
<svg version="1.0" xmlns="http://www.w3.org/2000/svg"
 width="512.000000pt" height="512.000000pt" viewBox="0 0 512.000000 512.000000"
 preserveAspectRatio="xMidYMid meet">

<g transform="translate(0.000000,512.000000) scale(0.100000,-0.100000)"
fill="#000000" stroke="none">
<path d="M180 5111 c-134 -41 -207 -173 -168 -305 16 -55 99 -138 154 -154 28
-8 130 -12 316 -12 221 0 278 -3 294 -14 17 -13 19 -31 24 -198 l5 -183 235 0
235 0 3 220 c1 132 -2 241 -9 273 -27 130 -131 267 -247 326 -103 52 -139 56
-492 55 -179 0 -336 -4 -350 -8z"/>
<path d="M2560 4787 c-52 -17 -133 -102 -148 -157 -10 -34 -12 -209 -10 -727
3 -671 3 -682 24 -710 11 -15 38 -37 60 -48 38 -19 59 -20 714 -20 655 0 676
1 714 20 22 11 49 33 60 48 21 28 21 39 24 710 2 502 0 693 -9 725 -7 25 -30
63 -56 92 -62 69 -105 81 -274 78 l-134 -3 -5 -298 -5 -299 -24 -19 c-22 -18
-42 -19 -291 -19 -249 0 -269 1 -291 19 l-24 19 -5 299 -5 298 -140 2 c-80 1
-155 -4 -175 -10z m1175 -1292 c16 -15 25 -36 25 -55 0 -19 -9 -40 -25 -55
-23 -24 -31 -25 -135 -25 -104 0 -112 1 -135 25 -16 15 -25 36 -25 55 0 19 9
40 25 55 23 24 31 25 135 25 104 0 112 -1 135 -25z"/>
<path d="M3045 4788 c-3 -8 -4 -115 -3 -238 l3 -225 155 0 155 0 0 235 0 235
-153 3 c-118 2 -154 0 -157 -10z"/>
<path d="M805 4068 c-3 -7 -4 -636 -3 -1398 l3 -1385 235 0 235 0 0 1395 0
1395 -233 3 c-181 2 -234 0 -237 -10z"/>
<path d="M1680 2947 c-52 -17 -133 -102 -148 -157 -10 -34 -12 -209 -10 -727
3 -671 3 -682 24 -710 11 -15 38 -37 60 -48 38 -19 59 -20 714 -20 655 0 676
1 714 20 22 11 49 33 60 48 21 28 21 39 24 710 2 502 0 693 -9 725 -7 25 -30
63 -56 92 -62 69 -105 81 -274 78 l-134 -3 -5 -298 -5 -299 -24 -19 c-22 -18
-42 -19 -291 -19 -249 0 -269 1 -291 19 l-24 19 -5 299 -5 298 -140 2 c-80 1
-155 -4 -175 -10z m1175 -1292 c16 -15 25 -36 25 -55 0 -19 -9 -40 -25 -55
-23 -24 -31 -25 -135 -25 -104 0 -112 1 -135 25 -16 15 -25 36 -25 55 0 19 9
40 25 55 23 24 31 25 135 25 104 0 112 -1 135 -25z"/>
<path d="M2165 2948 c-3 -8 -4 -115 -3 -238 l3 -225 155 0 155 0 0 235 0 235
-153 3 c-118 2 -154 0 -157 -10z"/>
<path d="M3440 2947 c-52 -17 -133 -102 -148 -157 -10 -34 -12 -209 -10 -727
3 -671 3 -682 24 -710 11 -15 38 -37 60 -48 38 -19 59 -20 714 -20 655 0 676
1 714 20 22 11 49 33 60 48 21 28 21 39 24 710 2 502 0 693 -9 725 -7 25 -30
63 -56 92 -62 69 -105 81 -274 78 l-134 -3 -5 -298 -5 -299 -24 -19 c-22 -18
-42 -19 -291 -19 -249 0 -269 1 -291 19 l-24 19 -5 299 -5 298 -140 2 c-80 1
-155 -4 -175 -10z m1175 -1292 c16 -15 25 -36 25 -55 0 -19 -9 -40 -25 -55
-23 -24 -31 -25 -135 -25 -104 0 -112 1 -135 25 -16 15 -25 36 -25 55 0 19 9
40 25 55 23 24 31 25 135 25 104 0 112 -1 135 -25z"/>
<path d="M3925 2948 c-3 -8 -4 -115 -3 -238 l3 -225 155 0 155 0 0 235 0 235
-153 3 c-118 2 -154 0 -157 -10z"/>
<path d="M825 1095 c-25 -24 -25 -26 -25 -216 0 -230 6 -255 75 -325 57 -57
110 -77 190 -72 l50 3 7 106 c12 177 72 325 181 445 79 87 85 84 -203 84
l-251 0 -24 -25z"/>
<path d="M1725 1108 c-90 -17 -204 -80 -279 -154 -220 -220 -220 -568 0 -788
220 -219 573 -219 790 1 217 221 216 567 -1 786 -132 134 -320 191 -510 155z
m189 -320 c86 -26 166 -136 166 -228 0 -124 -116 -240 -240 -240 -124 0 -240
116 -240 240 0 63 23 114 75 165 70 71 145 90 239 63z"/>
<path d="M2330 1104 c0 -9 21 -40 48 -68 108 -120 168 -268 180 -445 l7 -106
395 0 395 0 7 106 c12 177 72 325 181 445 83 91 132 84 -583 84 -572 0 -630
-1 -630 -16z"/>
<path d="M3965 1108 c-90 -17 -204 -80 -279 -154 -220 -220 -220 -568 0 -788
220 -219 573 -219 790 1 217 221 216 567 -1 786 -132 134 -320 191 -510 155z
m189 -320 c86 -26 166 -136 166 -228 0 -124 -116 -240 -240 -240 -124 0 -240
116 -240 240 0 63 23 114 75 165 70 71 145 90 239 63z"/>
<path d="M4570 1104 c0 -9 21 -40 48 -68 108 -120 168 -268 180 -445 l7 -106
53 -3 c81 -5 143 20 195 78 56 62 67 102 67 240 0 145 -11 182 -75 245 -67 68
-96 75 -304 75 -150 0 -171 -2 -171 -16z"/>
</g>
</svg>
