<?xml version="1.0" standalone="no"?>
<!DOCTYPE svg PUBLIC "-//W3C//DTD SVG 20010904//EN"
 "http://www.w3.org/TR/2001/REC-SVG-20010904/DTD/svg10.dtd">
<svg version="1.0" xmlns="http://www.w3.org/2000/svg"
 width="512.000000pt" height="512.000000pt" viewBox="0 0 512.000000 512.000000"
 preserveAspectRatio="xMidYMid meet">

<g transform="translate(0.000000,512.000000) scale(0.100000,-0.100000)"
fill="#000000" stroke="none">
<path d="M2514 4951 c-23 -10 -52 -34 -65 -52 l-24 -34 -3 -376 -3 -375 23
-34 c13 -18 36 -43 51 -54 28 -21 39 -21 496 -24 l467 -3 77 -133 77 -134 0
-1106 0 -1106 -160 0 c-88 0 -160 1 -160 3 0 2 7 24 15 48 13 39 15 135 13
715 -3 742 1 693 -70 764 -73 73 -23 70 -899 70 l-785 0 -51 -25 c-55 -28 -99
-77 -119 -134 -7 -20 -13 -80 -14 -133 l0 -98 -192 0 c-165 0 -199 -3 -233
-19 -51 -23 -102 -81 -110 -123 -3 -18 -5 -266 -3 -551 l3 -517 -50 0 c-93 -1
-181 -64 -204 -147 -6 -21 -11 -95 -11 -165 0 -154 7 -168 91 -168 l52 0 -52
-55 c-75 -79 -91 -119 -91 -238 0 -132 21 -180 105 -240 25 -18 49 -23 135
-27 l105 -5 5 -153 c4 -121 8 -155 20 -162 8 -5 74 -10 146 -10 l130 0 30 33
c17 17 79 92 139 164 l108 133 1057 0 1058 0 83 -102 c45 -57 107 -131 137
-165 l54 -63 132 0 c173 0 165 -9 168 180 l3 145 100 5 c107 5 140 17 187 67
45 47 58 92 58 200 0 118 -14 153 -89 236 l-53 57 51 0 c84 0 91 14 91 168 0
148 -9 189 -53 239 -55 63 -90 73 -269 73 l-158 0 0 1109 0 1109 76 131 76
131 55 0 c29 0 67 7 82 15 39 20 78 69 91 113 16 59 12 678 -4 725 -18 50 -42
76 -91 98 -38 18 -87 19 -915 19 -832 0 -877 -1 -916 -19z m1794 -107 l22 -15
0 -341 c0 -304 -2 -343 -17 -360 -15 -17 -56 -18 -881 -18 -791 0 -867 1 -884
17 -17 15 -18 39 -18 353 0 346 1 359 40 373 8 3 398 6 865 6 754 1 853 -1
873 -15z m-2228 -1974 l0 -140 -295 0 -295 0 0 88 c0 102 17 145 71 174 30 16
60 18 276 18 l243 0 0 -140z m1059 122 c19 -10 43 -34 53 -53 17 -32 18 -73
18 -674 0 -601 -1 -642 -18 -674 -38 -71 -40 -71 -484 -71 l-397 0 10 32 c5
18 9 90 9 160 l0 128 218 0 c237 0 255 4 255 53 0 56 -6 57 -249 57 l-224 0 0
90 0 90 218 0 c239 0 255 3 255 55 0 52 -16 55 -255 55 l-218 0 0 154 c0 84
-3 167 -6 183 -10 51 17 48 136 -13 107 -56 110 -57 135 -40 l25 16 0 235 0
235 243 0 c216 0 246 -2 276 -18z m-1779 -536 c0 -90 3 -172 6 -181 4 -9 18
-21 31 -26 19 -7 40 -1 105 32 l80 40 84 -42 c80 -41 84 -42 108 -25 25 16 26
16 28 189 l3 172 182 0 c177 0 183 -1 205 -23 l23 -23 0 -500 0 -501 -28 -24
-28 -24 -570 0 c-602 0 -616 1 -633 45 -3 9 -6 239 -6 510 l0 493 31 26 c30
26 32 26 205 26 l174 0 0 -164z m2968 -1510 c101 -104 107 -119 100 -233 -4
-59 -7 -69 -36 -94 l-32 -29 -1800 0 -1800 0 -32 29 c-29 25 -32 35 -36 94 -7
114 -1 129 100 233 l91 94 1677 0 1677 0 91 -94z"/>
<path d="M2716 4658 c-13 -18 -16 -53 -16 -176 0 -149 1 -153 25 -178 l24 -24
692 2 c670 3 691 4 705 22 11 15 14 58 14 181 0 144 -2 164 -18 178 -17 16
-81 17 -715 17 l-696 0 -15 -22z"/>
<path d="M1230 2063 c-43 -16 -53 -73 -18 -97 19 -14 70 -16 355 -16 320 0
334 1 353 20 24 24 25 49 6 76 -14 18 -30 19 -348 21 -183 1 -340 -1 -348 -4z"/>
<path d="M1212 1834 c-14 -10 -22 -26 -22 -44 0 -58 9 -60 377 -60 320 0 334
1 353 20 11 11 20 29 20 40 0 11 -9 29 -20 40 -19 19 -33 20 -353 20 -285 0
-336 -2 -355 -16z"/>
</g>
</svg>
