<?xml version="1.0" standalone="no"?>
<!DOCTYPE svg PUBLIC "-//W3C//DTD SVG 20010904//EN"
 "http://www.w3.org/TR/2001/REC-SVG-20010904/DTD/svg10.dtd">
<svg version="1.0" xmlns="http://www.w3.org/2000/svg"
 width="512.000000pt" height="512.000000pt" viewBox="0 0 512.000000 512.000000"
 preserveAspectRatio="xMidYMid meet">

<g transform="translate(0.000000,512.000000) scale(0.100000,-0.100000)"
fill="#000000" stroke="none">
<path d="M2452 4815 c-118 -60 -165 -198 -108 -321 24 -52 84 -110 124 -120
l22 -6 0 -1602 0 -1603 23 -21 c29 -28 57 -28 91 -1 l26 20 0 1604 0 1603 23
6 c12 3 41 21 63 40 89 76 110 213 48 312 -65 106 -202 144 -312 89z m179
-144 c64 -65 20 -171 -71 -171 -33 0 -48 6 -71 29 -64 65 -20 171 71 171 33 0
48 -6 71 -29z"/>
<path d="M1457 4608 c-17 -13 -118 -333 -119 -377 -1 -47 69 -68 111 -33 31
25 126 348 112 380 -17 36 -73 52 -104 30z"/>
<path d="M822 4537 c-12 -13 -22 -32 -22 -42 0 -22 145 -302 173 -332 25 -28
77 -31 99 -5 33 39 30 51 -54 211 -46 86 -91 164 -100 173 -25 25 -70 23 -96
-5z"/>
<path d="M3450 4487 c-51 -26 -48 -48 29 -232 39 -94 79 -176 88 -182 39 -29
103 3 103 52 0 28 -124 334 -143 351 -20 20 -51 24 -77 11z"/>
<path d="M4085 4490 c-12 -4 -25 -14 -31 -21 -18 -23 -134 -323 -134 -346 0
-42 59 -75 98 -54 22 12 152 324 152 364 0 39 -48 71 -85 57z"/>
<path d="M1798 4143 c-126 -69 -159 -91 -169 -115 -10 -25 -9 -33 8 -56 36
-49 67 -42 236 49 83 45 157 89 164 98 20 26 15 60 -12 86 -13 14 -34 25 -47
24 -13 0 -94 -39 -180 -86z"/>
<path d="M3030 4042 c-52 -16 -69 -89 -27 -116 12 -8 94 -42 182 -76 148 -58
162 -61 185 -48 14 7 29 26 34 40 17 49 -9 70 -166 133 -166 67 -188 74 -208
67z"/>
<path d="M3985 3926 c-27 -13 -62 -36 -77 -52 -31 -33 -67 -109 -68 -141 0
-15 -16 -30 -57 -53 -309 -173 -552 -603 -717 -1271 -89 -359 -142 -712 -171
-1151 -6 -89 -5 -98 14 -117 26 -26 62 -27 90 -3 19 15 22 33 31 167 58 863
272 1636 561 2026 60 82 169 184 233 218 l44 25 42 -38 c55 -50 97 -66 167
-66 140 1 243 101 243 238 0 176 -178 292 -335 218z m154 -132 c30 -21 51 -71
44 -107 -3 -15 -19 -38 -35 -52 -70 -59 -168 -13 -168 78 0 38 5 49 31 71 36
31 92 35 128 10z"/>
<path d="M954 3926 c-91 -40 -147 -126 -148 -226 -1 -101 42 -167 134 -209 89
-41 193 -22 274 49 l38 34 46 -25 c67 -35 210 -181 274 -279 270 -411 461
-1139 518 -1969 8 -117 13 -148 27 -162 30 -29 57 -31 86 -8 25 19 27 26 27
103 0 109 -25 369 -56 586 -137 959 -443 1646 -824 1849 -54 29 -57 33 -73 91
-20 71 -68 129 -131 159 -49 24 -144 28 -192 7z m135 -130 c89 -47 54 -186
-48 -186 -61 0 -104 41 -104 100 0 79 79 123 152 86z"/>
<path d="M463 3019 c-48 -24 -99 -77 -119 -125 -8 -19 -14 -60 -14 -92 0 -211
247 -319 406 -179 l45 40 65 -28 c88 -37 227 -126 314 -200 279 -237 471 -642
520 -1095 20 -190 20 -189 43 -205 28 -19 57 -19 85 1 28 19 29 79 7 251 -44
334 -146 621 -306 863 -84 127 -273 316 -396 397 -50 33 -138 81 -196 108 -97
46 -105 51 -110 82 -13 76 -71 152 -142 184 -56 26 -148 25 -202 -2z m180
-159 c36 -40 36 -87 1 -129 -50 -60 -140 -46 -170 26 -45 106 91 189 169 103z"/>
<path d="M4482 3026 c-87 -28 -154 -105 -168 -193 -3 -24 -11 -43 -17 -43 -5
0 -60 -24 -121 -54 -177 -86 -333 -206 -455 -351 -218 -257 -352 -575 -411
-973 -25 -175 -26 -254 -2 -274 27 -24 50 -28 77 -16 31 14 40 46 55 193 62
608 361 1088 806 1296 45 22 88 39 96 39 8 0 29 -16 48 -35 47 -49 104 -68
184 -63 202 13 297 242 163 394 -69 78 -166 109 -255 80z m124 -145 c67 -41
63 -140 -6 -176 -95 -49 -194 67 -129 149 38 48 85 57 135 27z"/>
<path d="M1305 1695 c-268 -69 -489 -159 -640 -260 -260 -173 -325 -395 -174
-597 210 -281 853 -490 1693 -549 219 -15 738 -7 946 15 469 50 920 161 1175
288 178 90 313 206 368 318 28 57 32 74 32 150 0 73 -4 93 -28 143 -73 147
-255 280 -527 387 -166 64 -467 147 -481 132 -21 -22 -79 -269 -79 -336 0 -32
1 -32 77 -50 263 -61 466 -169 489 -260 3 -14 -1 -39 -11 -60 -71 -150 -542
-287 -1155 -337 -174 -14 -686 -14 -860 0 -705 57 -1203 228 -1165 400 8 36
65 94 130 130 70 40 222 95 338 122 l97 23 0 34 c0 79 -64 333 -86 338 -5 2
-67 -13 -139 -31z"/>
<path d="M1350 1115 c0 -4 7 -19 16 -34 61 -103 369 -203 779 -253 137 -17
688 -16 830 0 408 49 718 149 779 253 21 35 21 50 0 21 -48 -69 -290 -130
-654 -164 -178 -16 -901 -16 -1075 0 -371 35 -555 79 -639 152 -20 18 -36 29
-36 25z"/>
</g>
</svg>
