<?xml version="1.0" standalone="no"?>
<!DOCTYPE svg PUBLIC "-//W3C//DTD SVG 20010904//EN"
 "http://www.w3.org/TR/2001/REC-SVG-20010904/DTD/svg10.dtd">
<svg version="1.0" xmlns="http://www.w3.org/2000/svg"
 width="512.000000pt" height="512.000000pt" viewBox="0 0 512.000000 512.000000"
 preserveAspectRatio="xMidYMid meet">

<g transform="translate(0.000000,512.000000) scale(0.100000,-0.100000)"
fill="#000000" stroke="none">
<path d="M859 5110 c-9 -5 -22 -23 -29 -39 -11 -28 -8 -37 35 -123 26 -51 67
-129 91 -174 24 -45 44 -85 43 -90 0 -5 -23 -20 -52 -34 -57 -29 -92 -72 -110
-137 -7 -28 -17 -43 -27 -43 -9 0 -40 -12 -69 -26 -57 -29 -104 -88 -117 -148
-7 -35 -19 -46 -50 -46 -12 0 -37 -11 -56 -24 l-36 -24 -151 79 c-165 86 -208
97 -235 57 -21 -29 -20 -61 5 -253 23 -182 24 -185 119 -230 69 -33 66 -24 75
-210 3 -66 16 -201 30 -299 l24 -179 -75 -79 c-215 -225 -287 -463 -213 -705
37 -120 112 -236 236 -364 l54 -55 -16 -105 c-9 -57 -24 -180 -34 -274 l-17
-170 -104 -56 c-57 -31 -112 -67 -121 -80 -11 -16 -23 -81 -39 -207 -20 -168
-20 -185 -6 -208 33 -50 57 -45 244 52 95 49 176 90 181 92 5 1 11 -12 15 -30
9 -47 93 -124 146 -135 39 -8 42 -11 59 -61 28 -81 109 -152 175 -152 20 0 26
-6 31 -33 4 -17 18 -51 32 -75 l24 -43 -80 -154 c-45 -85 -81 -165 -81 -178 0
-39 35 -67 83 -67 66 0 345 38 367 50 11 6 36 42 55 79 l34 69 108 7 c133 8
348 31 467 50 l89 14 81 -75 c142 -133 309 -228 364 -208 38 13 59 55 47 91
-8 22 -31 39 -102 76 -50 27 -115 70 -144 96 l-53 48 89 12 c162 22 404 25
575 7 85 -10 156 -19 158 -20 1 -2 -27 -27 -63 -56 -63 -50 -186 -120 -212
-120 -17 0 -43 -40 -43 -66 0 -36 37 -74 73 -74 71 0 233 98 357 216 l76 73
95 -14 c147 -22 349 -45 401 -45 l46 0 62 -116 c40 -75 69 -118 83 -123 12 -5
103 -18 201 -30 198 -25 215 -23 236 30 13 30 -3 68 -126 295 -24 45 -44 85
-43 90 0 5 23 20 52 34 57 28 92 72 110 137 9 35 15 42 42 47 59 11 120 59
149 117 14 29 26 61 26 70 0 11 14 20 44 28 24 6 54 19 67 30 l24 20 152 -80
c166 -86 209 -97 237 -57 21 29 20 61 -5 253 -23 180 -24 182 -110 225 l-56
29 -7 128 c-6 118 -50 498 -61 533 -3 10 15 35 46 65 119 117 229 287 229 356
0 43 -25 70 -69 71 -41 1 -56 -13 -92 -88 -27 -59 -119 -185 -138 -192 -15 -5
-36 231 -36 408 0 173 20 400 36 400 25 0 138 -173 164 -251 18 -53 37 -69 84
-69 33 0 71 39 71 72 0 31 -49 138 -98 213 -24 39 -80 106 -122 150 l-78 80
24 165 c13 91 27 208 30 260 4 52 10 104 14 115 5 12 50 42 108 74 74 39 103
60 110 80 15 38 53 362 46 389 -8 29 -58 55 -87 46 -12 -4 -93 -44 -181 -90
-87 -46 -162 -84 -166 -84 -4 0 -11 11 -14 25 -14 55 -122 145 -174 145 -13 0
-21 13 -30 47 -18 64 -91 137 -155 155 -43 11 -48 16 -58 53 -6 22 -19 52 -29
67 l-19 26 79 153 c44 84 80 164 80 178 0 48 -25 71 -78 71 -54 0 -338 -35
-364 -45 -10 -4 -34 -37 -54 -75 l-37 -67 -126 -6 c-69 -4 -196 -16 -281 -27
-85 -12 -179 -24 -207 -27 l-52 -6 -55 56 c-118 119 -262 208 -392 241 -78 20
-210 20 -293 1 -124 -30 -277 -124 -394 -243 l-58 -58 -82 13 c-82 13 -279 36
-414 48 l-73 7 -55 104 c-31 57 -61 106 -67 110 -11 7 -345 53 -383 53 -11 0
-27 -4 -36 -9z m320 -180 c18 -9 370 -680 371 -705 0 -53 -61 -84 -102 -52
-14 10 -383 706 -404 760 -6 17 -2 18 57 11 35 -3 70 -10 78 -14z m1499 10
c64 -15 165 -67 229 -119 31 -25 58 -51 60 -57 2 -6 -48 -16 -134 -26 -119
-13 -139 -18 -155 -38 -24 -29 -23 -61 3 -94 25 -31 52 -33 214 -11 61 8 133
18 161 21 l51 6 65 -83 c35 -46 81 -107 102 -136 l37 -52 -49 -25 c-26 -13
-53 -31 -60 -38 -11 -14 -52 -303 -52 -374 0 -53 35 -90 77 -81 15 3 102 45
192 92 90 47 164 84 165 83 32 -87 100 -154 167 -164 33 -6 39 -11 44 -38 10
-47 51 -112 87 -137 17 -13 52 -28 76 -34 41 -11 45 -15 62 -64 10 -29 24 -60
33 -68 13 -14 6 -33 -70 -180 -87 -170 -91 -185 -55 -225 20 -23 59 -23 257 3
177 22 182 25 221 102 16 31 29 45 37 41 25 -15 177 -135 177 -141 0 -3 -10
-76 -22 -162 -32 -223 -31 -533 1 -755 20 -134 21 -161 10 -170 -8 -6 -70 -53
-139 -104 l-124 -93 -23 45 c-13 25 -31 50 -41 55 -20 11 -314 51 -371 51 -41
0 -81 -33 -81 -67 0 -13 41 -101 90 -197 l91 -174 -36 -12 c-66 -22 -135 -103
-135 -158 0 -23 -19 -42 -42 -42 -24 0 -76 -26 -106 -54 -30 -27 -54 -72 -61
-114 -5 -30 -12 -35 -59 -51 -30 -10 -61 -26 -70 -35 -15 -14 -29 -9 -171 65
-85 44 -167 81 -183 81 -44 1 -68 -27 -68 -81 0 -53 35 -338 45 -363 4 -9 31
-29 61 -45 30 -15 54 -31 54 -34 0 -4 -30 -46 -67 -94 -63 -82 -68 -86 -97
-81 -265 48 -641 55 -900 18 -83 -12 -150 -21 -151 -19 0 1 -19 25 -42 52 -53
66 -153 206 -153 215 0 4 13 13 29 20 61 25 70 44 91 211 27 212 27 242 -6
268 -15 12 -33 21 -41 21 -8 0 -93 -41 -190 -91 -96 -50 -176 -90 -177 -88 -2
2 -13 23 -24 46 -27 52 -84 100 -142 117 -38 11 -46 18 -51 44 -15 76 -97 157
-170 168 -32 5 -39 11 -39 29 0 12 -11 43 -25 70 l-26 47 81 154 c44 84 80
164 80 177 0 39 -35 67 -83 67 -77 0 -350 -39 -372 -54 -11 -8 -29 -32 -40
-55 -10 -23 -22 -41 -27 -41 -5 0 -46 28 -91 63 -44 34 -84 64 -88 67 -4 3 4
86 16 184 24 189 22 226 -15 246 -31 17 -65 11 -88 -13 -18 -19 -25 -47 -37
-143 -8 -65 -15 -123 -15 -129 -1 -16 -82 79 -118 138 -57 95 -76 161 -76 267
1 107 21 174 82 270 39 62 103 142 108 137 2 -2 11 -64 19 -138 14 -121 18
-136 41 -156 31 -28 64 -29 95 -4 22 17 24 26 21 88 -1 37 -11 129 -22 203
l-19 135 31 25 c63 51 223 169 229 170 3 0 14 -18 24 -41 11 -23 28 -47 40
-55 19 -12 305 -54 374 -54 41 0 81 33 81 67 0 13 -40 100 -89 194 l-89 171
52 27 c55 29 116 105 116 145 0 28 18 46 45 46 33 0 110 54 135 95 13 21 26
54 29 72 5 31 11 36 59 52 30 10 61 26 70 35 15 14 29 9 171 -65 85 -44 167
-81 183 -81 44 -2 71 31 69 84 -1 54 -37 337 -46 359 -3 9 -30 29 -58 44 -29
16 -54 29 -56 31 -3 2 57 83 128 173 l19 25 118 -17 c66 -9 151 -20 191 -23
67 -6 73 -5 97 19 15 15 26 37 26 52 0 28 -40 75 -64 75 -44 0 -222 23 -229
30 -9 8 75 79 143 119 109 64 252 87 368 61z m1472 -65 c0 -3 -18 -41 -40 -85
-37 -73 -43 -80 -70 -80 -16 0 -53 -9 -82 -20 -29 -11 -54 -20 -55 -20 -1 0
20 42 47 93 l49 92 68 11 c37 7 71 12 76 13 4 0 7 -1 7 -4z m-410 -182 c-1 -5
-18 -41 -38 -81 l-38 -73 -110 -59 -110 -58 -81 111 c-94 131 -105 116 102
141 215 25 275 29 275 19z m-2042 -22 c79 -11 146 -21 148 -24 4 -4 -62 -101
-97 -140 -4 -5 -56 16 -116 47 -92 47 -112 61 -126 91 -9 20 -17 38 -17 40 0
9 65 5 208 -14z m2388 -137 c20 -19 24 -31 19 -52 -3 -15 -9 -30 -13 -34 -8
-8 -776 -408 -778 -405 -1 1 3 36 8 77 l10 75 346 182 c191 100 355 183 365
183 10 0 29 -11 43 -26z m-3002 -26 c21 -20 245 -439 262 -491 3 -10 -2 -29
-10 -42 -13 -19 -25 -25 -55 -25 -21 0 -43 6 -49 13 -25 31 -252 486 -252 505
0 25 36 62 61 62 10 0 29 -10 43 -22z m781 -290 c3 -29 9 -66 12 -82 l5 -29
-91 49 c-81 43 -91 52 -91 76 0 15 -9 51 -20 80 -11 29 -20 54 -20 56 0 1 45
-20 99 -48 l99 -49 7 -53z m2432 110 c29 -27 29 -59 1 -85 -35 -32 -470 -254
-499 -255 -34 -1 -48 8 -60 39 -19 51 2 68 256 199 132 68 249 124 259 124 11
0 30 -10 43 -22z m-3419 -20 c5 -7 65 -118 132 -246 132 -254 140 -282 89
-311 -57 -32 -67 -21 -203 242 -69 134 -126 252 -126 262 0 47 81 86 108 53z
m-544 -198 c71 -39 73 -42 79 -85 4 -25 16 -63 27 -85 l21 -41 -101 51 c-81
41 -100 54 -101 73 0 12 -4 46 -8 75 -4 28 -4 52 1 52 5 0 42 -18 82 -40z
m4170 15 c24 -25 29 -54 12 -80 -18 -28 -472 -265 -508 -265 -50 0 -83 56 -55
94 20 27 476 265 509 265 15 1 33 -6 42 -14z m-3841 -27 c15 -12 422 -778 415
-783 -2 -1 -37 3 -78 9 l-75 11 -182 345 c-100 190 -182 353 -182 363 -1 23
43 67 67 67 10 0 26 -6 35 -12z m4282 -60 c-13 -113 18 -88 -361 -287 -189
-100 -352 -181 -362 -181 -58 0 -86 82 -39 115 17 13 752 400 765 404 2 1 1
-23 -3 -51z m-4303 -485 c32 -59 57 -111 55 -115 -1 -3 -49 -41 -107 -82
l-105 -76 -7 48 c-15 94 -38 322 -38 367 l0 46 72 -40 c71 -39 72 -40 130
-148z m4048 62 c0 -19 -40 -328 -43 -331 -1 -1 -34 21 -73 50 l-71 52 52 103
c41 83 58 107 86 122 42 22 49 23 49 4z m-371 -254 l-54 -100 -60 -6 c-33 -4
-68 -9 -78 -12 -14 -4 -9 14 28 86 43 86 47 91 78 91 17 0 55 11 82 24 28 13
52 22 54 20 1 -1 -21 -48 -50 -103z m-3309 -1487 c0 -3 -19 -41 -42 -85 -39
-71 -46 -79 -73 -79 -27 -1 -61 -11 -118 -35 -14 -6 -8 13 28 84 25 51 51 94
58 97 7 2 39 8 72 13 33 5 63 9 68 10 4 0 7 -2 7 -5z m-449 -75 l69 -51 -54
-102 c-35 -66 -65 -109 -86 -123 -44 -31 -52 -29 -46 10 3 17 13 96 22 175 10
78 19 142 22 142 2 0 36 -23 73 -51z m4093 19 c6 -35 31 -259 41 -370 4 -46 2
-68 -5 -68 -6 0 -43 18 -83 40 l-72 39 -59 111 c-33 63 -55 115 -50 120 16 16
209 158 215 159 4 1 9 -14 13 -31z m-461 -37 c13 -13 357 -671 363 -696 4 -18
-1 -31 -20 -49 -28 -29 -53 -33 -79 -13 -13 9 -417 767 -417 781 0 6 146 -17
153 -23z m-3253 -241 c25 -25 26 -72 3 -92 -21 -18 -766 -408 -771 -403 -4 3
15 145 20 150 16 15 697 365 711 365 9 0 26 -9 37 -20z m3153 -175 c22 -22
257 -480 257 -501 0 -25 -40 -64 -65 -64 -12 0 -28 6 -37 13 -26 19 -261 479
-261 509 0 15 5 34 13 42 16 20 74 21 93 1z m-2945 -31 c27 -19 30 -74 5 -96
-10 -9 -125 -70 -255 -137 -255 -131 -266 -133 -298 -77 -28 50 -6 67 250 202
129 67 244 123 255 123 11 1 31 -6 43 -15z m3719 -287 c4 -40 5 -73 1 -75 -4
-2 -40 15 -81 38 -72 39 -74 42 -80 85 -4 25 -16 63 -27 86 l-21 40 100 -51
99 -51 9 -72z m-981 109 c22 -21 254 -483 254 -504 0 -27 -37 -62 -65 -62 -12
0 -31 10 -42 23 -11 12 -73 123 -137 247 -93 180 -116 232 -114 260 4 53 66
75 104 36z m-2524 -33 c21 -19 24 -75 5 -91 -36 -30 -479 -252 -503 -252 -57
0 -86 67 -45 104 33 30 474 255 500 256 14 0 33 -7 43 -17z m437 -113 c-6 -41
-11 -76 -12 -77 -18 -17 -697 -363 -713 -363 -23 0 -64 42 -64 65 0 32 61 70
415 255 209 109 381 197 382 196 1 -1 -3 -35 -8 -76z m1621 -122 c0 -15 9 -51
20 -80 11 -29 20 -54 20 -56 0 -1 -45 20 -99 48 l-99 49 -7 53 c-3 29 -9 66
-12 82 l-5 29 91 -49 c81 -43 91 -52 91 -76z m253 60 c18 -14 412 -766 405
-773 -8 -9 -128 8 -142 19 -20 16 -366 680 -366 702 0 52 62 83 103 52z
m-1899 -353 c42 -59 76 -108 76 -109 0 -6 -251 -36 -357 -44 -69 -5 -103 -4
-103 3 0 5 17 42 38 80 l38 70 109 57 c60 31 112 55 116 53 3 -3 41 -52 83
-110z m1839 -121 l17 -35 -42 5 c-24 3 -103 13 -175 22 -92 11 -131 20 -126
28 4 6 26 37 50 69 l44 57 108 -55 c90 -46 110 -60 124 -91z m-2433 -104 c-28
-56 -56 -103 -63 -105 -18 -7 -141 -23 -146 -19 -2 2 17 40 42 86 44 82 45 83
89 89 25 4 62 16 84 28 21 11 40 20 42 21 1 0 -20 -45 -48 -100z"/>
</g>
</svg>
