<?xml version="1.0" standalone="no"?>
<!DOCTYPE svg PUBLIC "-//W3C//DTD SVG 20010904//EN"
 "http://www.w3.org/TR/2001/REC-SVG-20010904/DTD/svg10.dtd">
<svg version="1.0" xmlns="http://www.w3.org/2000/svg"
 width="512.000000pt" height="512.000000pt" viewBox="0 0 512.000000 512.000000"
 preserveAspectRatio="xMidYMid meet">

<g transform="translate(0.000000,512.000000) scale(0.100000,-0.100000)"
fill="#000000" stroke="none">
<path d="M550 4271 c-108 -29 -130 -48 -130 -113 0 -35 83 -355 100 -388 15
-28 51 -50 82 -50 16 0 28 -2 28 -5 0 -3 119 -450 265 -994 146 -544 265 -992
265 -995 0 -3 21 -6 48 -6 234 -1 455 -207 481 -450 l6 -55 247 -3 246 -2 7
-30 c4 -16 20 -41 37 -55 l30 -25 1194 2 1194 3 27 28 28 27 3 194 c4 223 -4
268 -48 291 -25 13 -178 15 -1215 15 -790 0 -1193 -3 -1205 -10 -27 -14 -43
-47 -50 -100 l-5 -45 -77 -3 c-76 -3 -78 -2 -115 32 l-38 34 -5 659 c-5 636
-6 660 -27 720 -27 81 -73 152 -133 206 -61 54 -489 302 -501 290 -5 -5 -8
-96 -7 -203 l3 -193 129 -76 c71 -42 139 -89 150 -104 20 -28 21 -41 24 -435
3 -455 3 -453 -67 -499 -31 -21 -46 -23 -152 -23 l-118 0 -9 33 c-5 17 -116
431 -246 919 l-238 887 33 29 c44 40 43 62 -16 277 -50 183 -62 211 -101 225
-33 13 -46 12 -124 -9z"/>
<path d="M3034 3635 l-24 -24 2 -413 3 -413 435 0 435 0 0 418 0 419 -24 19
c-20 17 -37 19 -105 17 l-81 -3 -5 -117 c-4 -97 -8 -121 -26 -144 -43 -58 -68
-69 -172 -73 -115 -4 -157 7 -202 54 -35 36 -35 37 -38 138 -4 156 2 147 -93
147 -72 0 -82 -3 -105 -25z"/>
<path d="M3367 3654 c-4 -4 -7 -47 -7 -95 0 -103 5 -109 92 -109 83 0 89 9 86
115 l-3 90 -80 3 c-45 1 -84 0 -88 -4z"/>
<path d="M2530 2630 c-19 -19 -20 -33 -20 -425 l0 -405 435 0 435 0 0 425 0
425 -105 0 -105 0 0 -102 c0 -170 -44 -227 -185 -236 -108 -7 -159 4 -202 41
-52 45 -63 81 -63 197 l0 100 -85 0 c-72 0 -88 -3 -105 -20z"/>
<path d="M2862 2553 l3 -98 82 -3 c97 -3 96 -5 91 118 l-3 75 -88 3 -88 3 3
-98z"/>
<path d="M3520 2225 l0 -425 435 0 435 0 0 405 c0 482 10 445 -125 445 l-85 0
0 -93 c0 -112 -10 -151 -51 -193 -40 -41 -106 -58 -207 -52 -88 5 -130 23
-164 70 -20 29 -23 47 -26 151 l-4 117 -104 0 -104 0 0 -425z"/>
<path d="M3864 2637 c-3 -8 -4 -52 -2 -98 l3 -84 85 0 85 0 3 98 3 97 -86 0
c-62 0 -87 -4 -91 -13z"/>
<path d="M1096 1580 c-147 -37 -256 -155 -286 -308 -31 -157 60 -333 208 -402
194 -92 418 -9 510 188 23 49 27 70 27 152 0 88 -3 101 -33 162 -41 84 -120
158 -200 188 -66 25 -169 34 -226 20z"/>
</g>
</svg>
