<?xml version="1.0" standalone="no"?>
<!DOCTYPE svg PUBLIC "-//W3C//DTD SVG 20010904//EN"
 "http://www.w3.org/TR/2001/REC-SVG-20010904/DTD/svg10.dtd">
<svg version="1.0" xmlns="http://www.w3.org/2000/svg"
 width="512.000000pt" height="512.000000pt" viewBox="0 0 512.000000 512.000000"
 preserveAspectRatio="xMidYMid meet">

<g transform="translate(0.000000,512.000000) scale(0.100000,-0.100000)"
fill="#000000" stroke="none">
<path d="M420 4884 c-113 -30 -212 -126 -245 -237 -23 -77 -23 -2507 0 -2584
21 -72 73 -142 136 -185 98 -68 101 -68 786 -68 l613 0 0 -275 0 -275 -295 0
c-245 0 -302 -3 -342 -16 -71 -24 -129 -68 -160 -122 -26 -44 -28 -55 -32
-189 l-3 -143 520 0 521 0 -17 37 c-15 35 -17 108 -20 806 l-3 767 -714 0
-715 0 0 1089 0 1090 22 15 c20 14 222 16 1950 16 1915 0 1928 0 1948 -20 19
-19 20 -33 20 -285 l0 -265 78 0 c69 0 145 -13 195 -35 16 -7 17 10 17 282 0
228 -3 301 -15 348 -27 104 -91 179 -195 229 l-65 31 -1965 2 c-1695 2 -1973
0 -2020 -13z"/>
<path d="M1746 4262 c-3 -4 -14 -33 -26 -64 -18 -48 -25 -56 -52 -62 -18 -3
-62 -20 -99 -37 l-67 -31 -58 26 -58 27 -75 -75 -74 -74 26 -62 27 -61 -24
-47 c-13 -27 -32 -71 -41 -98 -16 -50 -18 -51 -81 -74 l-65 -22 3 -105 3 -105
62 -25 c60 -24 63 -27 79 -76 9 -29 28 -73 41 -98 l25 -46 -20 -39 c-41 -81
-41 -80 38 -159 l72 -73 62 28 61 28 40 -21 c22 -11 66 -29 99 -41 57 -21 59
-22 81 -81 l22 -60 66 -3 67 -3 0 204 0 204 -63 5 c-122 10 -239 95 -294 213
-24 52 -28 72 -28 150 1 77 5 98 28 145 38 79 86 132 154 167 62 33 167 58
211 49 23 -5 31 1 58 42 36 55 113 106 186 121 27 6 99 11 161 11 l112 0 -41
40 -40 41 -58 -26 -58 -26 -82 35 c-44 19 -90 36 -100 38 -13 2 -26 22 -41 63
l-23 60 -105 3 c-58 1 -108 -1 -111 -6z"/>
<path d="M3297 4156 c-72 -20 -126 -62 -161 -128 l-31 -58 -143 0 c-79 0 -152
-5 -163 -10 -18 -10 -19 -23 -19 -183 0 -121 4 -177 12 -185 17 -17 1119 -17
1136 0 8 8 12 64 12 185 0 160 -1 173 -19 183 -11 5 -84 10 -164 10 l-145 0
-12 30 c-25 61 -68 108 -122 133 -68 33 -121 39 -181 23z m99 -144 c26 -17 36
-53 24 -83 -13 -32 -45 -45 -84 -35 -32 8 -52 56 -35 88 15 30 28 38 59 38 14
0 30 -4 36 -8z"/>
<path d="M2152 3873 c-34 -7 -98 -75 -105 -113 -4 -18 -7 -665 -7 -1438 0
-1385 0 -1406 20 -1447 13 -26 34 -49 59 -63 38 -22 42 -22 580 -22 l541 0 0
65 0 65 -508 0 c-497 0 -509 0 -530 20 -12 11 -24 31 -27 43 -3 12 -4 628 -3
1369 l3 1347 23 23 c22 22 30 23 222 26 l200 3 0 65 0 64 -222 -1 c-123 -1
-233 -4 -246 -6z"/>
<path d="M4100 3816 l0 -65 200 -3 c192 -3 200 -4 222 -26 l23 -23 3 -969 c1
-537 6 -970 11 -970 5 0 34 12 65 26 l56 26 -2 981 c-3 943 -4 983 -22 1010
-10 15 -33 38 -50 50 -30 21 -42 22 -268 25 l-238 3 0 -65z"/>
<path d="M2337 3583 c-4 -3 -7 -568 -7 -1255 l0 -1248 455 0 454 0 3 68 3 67
80 32 c74 30 92 45 94 81 1 6 -10 12 -24 12 -35 0 -75 42 -75 79 0 23 14 44
63 94 35 35 74 78 86 96 l22 31 -51 0 c-55 0 -104 19 -114 45 -11 30 -6 62 13
86 19 24 20 24 297 29 l278 5 26 65 26 65 212 3 212 2 -2 823 -3 822 -142 3
-141 3 -12 -36 c-16 -48 -54 -92 -101 -115 -37 -19 -62 -20 -629 -20 -570 0
-592 1 -630 20 -43 22 -84 70 -101 118 l-11 32 -137 0 c-76 0 -141 -3 -144 -7z
m1832 -379 c28 -35 26 -67 -3 -101 l-24 -28 -385 0 -385 0 -26 24 c-32 30 -34
69 -5 105 l20 26 394 0 394 0 20 -26z m-1165 -13 c26 -24 26 -26 26 -182 0
-87 -3 -165 -6 -174 -14 -36 -57 -45 -209 -45 l-147 0 -29 29 -29 29 0 155 c0
140 2 157 20 180 27 33 39 35 207 34 135 -2 143 -3 167 -26z m1161 -286 c27
-26 32 -70 12 -96 -28 -37 -48 -39 -422 -39 -302 0 -371 3 -394 15 -48 24 -56
81 -16 120 l24 25 386 0 386 0 24 -25z m-16 -400 c48 -24 56 -81 16 -120 l-24
-25 -386 0 -386 0 -24 25 c-40 39 -31 96 20 123 13 8 141 11 388 12 304 0 373
-3 396 -15z m-1160 -20 c16 -8 31 -22 35 -30 3 -9 6 -87 6 -174 0 -156 0 -158
-26 -182 -25 -23 -30 -24 -186 -24 l-160 0 -24 28 c-23 27 -24 34 -24 183 l0
156 29 29 29 29 147 0 c109 0 153 -4 174 -15z m1177 -298 c29 -34 31 -66 3
-101 l-20 -26 -394 0 -394 0 -20 26 c-37 47 -18 105 39 127 8 3 183 5 388 4
l374 -2 24 -28z m-1161 -432 c24 -24 25 -27 25 -185 0 -158 -1 -161 -25 -185
-24 -24 -27 -25 -185 -25 l-161 0 -24 26 c-24 26 -25 31 -25 186 0 155 1 159
25 183 24 24 27 25 185 25 158 0 161 -1 185 -25z"/>
<path d="M4061 1738 c-10 -24 -21 -53 -25 -64 -5 -15 -23 -27 -58 -39 -29 -9
-73 -27 -99 -41 l-47 -23 -62 26 -61 27 -75 -75 -75 -75 26 -58 26 -58 -35
-82 c-19 -44 -36 -89 -38 -99 -2 -12 -26 -28 -68 -46 l-65 -27 0 -104 0 -104
64 -26 c58 -23 65 -29 76 -65 6 -22 24 -66 39 -98 l28 -58 -27 -62 -26 -61 75
-75 75 -74 62 28 c61 27 63 27 92 10 17 -10 60 -28 96 -41 l66 -23 26 -63 26
-63 105 -3 106 -3 23 66 c23 63 25 65 74 81 27 9 72 28 99 41 l48 24 65 -27
64 -27 70 69 c38 37 69 74 69 81 0 7 -11 38 -25 68 l-25 56 29 57 c16 31 34
76 41 99 12 39 17 43 76 64 l64 23 0 107 0 107 -64 23 c-62 23 -64 24 -80 75
-9 28 -27 72 -41 98 l-25 47 29 63 29 64 -72 71 c-39 39 -76 71 -83 71 -6 0
-36 -12 -67 -26 -54 -24 -58 -25 -82 -9 -13 9 -57 28 -97 43 l-71 28 -25 62
-24 62 -104 0 -104 0 -18 -42z m264 -402 c76 -34 117 -68 159 -129 164 -239
-8 -567 -299 -570 -158 -1 -293 93 -347 241 -25 68 -23 187 3 256 37 99 138
191 247 222 67 19 170 11 237 -20z"/>
</g>
</svg>
