<?xml version="1.0" standalone="no"?>
<!DOCTYPE svg PUBLIC "-//W3C//DTD SVG 20010904//EN"
 "http://www.w3.org/TR/2001/REC-SVG-20010904/DTD/svg10.dtd">
<svg version="1.0" xmlns="http://www.w3.org/2000/svg"
 width="512.000000pt" height="512.000000pt" viewBox="0 0 512.000000 512.000000"
 preserveAspectRatio="xMidYMid meet">

<g transform="translate(0.000000,512.000000) scale(0.100000,-0.100000)"
fill="#000000" stroke="none">
<path d="M175 3871 c-74 -18 -121 -59 -154 -131 -20 -44 -21 -59 -21 -1180 0
-1121 1 -1136 21 -1180 25 -56 53 -86 104 -113 l40 -22 2395 0 2395 0 40 22
c51 27 79 57 104 113 20 44 21 63 21 618 l0 573 -25 24 c-13 14 -31 25 -40 25
-12 0 -15 15 -15 85 0 73 3 87 18 92 9 3 27 15 40 26 l22 20 0 426 c0 407 -1
428 -21 471 -25 56 -53 86 -104 113 l-40 22 -1736 0 c-1694 0 -1737 0 -1758
-19 -12 -11 -21 -27 -21 -38 0 -16 -9 -18 -89 -18 -86 0 -89 1 -95 25 -14 54
-22 55 -558 54 -271 -1 -506 -4 -523 -8z m445 -226 l0 -75 -82 0 c-100 0 -152
-21 -194 -76 -27 -34 -29 -45 -32 -136 l-4 -98 -79 0 -79 0 0 204 c0 191 1
205 21 230 l20 26 215 0 214 0 0 -75z m4329 49 c20 -25 21 -39 21 -230 l0
-204 -79 0 -79 0 -4 98 c-3 91 -5 102 -32 136 -42 55 -94 76 -193 76 l-83 0 0
75 0 75 214 0 215 0 20 -26z m-300 -288 c8 -10 10 -242 9 -857 l-3 -844 -1134
-3 -1135 -2 -23 -22 c-13 -12 -23 -30 -23 -40 0 -16 -10 -18 -90 -18 -69 0
-90 3 -90 14 0 7 -9 25 -21 40 l-20 26 -827 2 -827 3 -3 844 c-1 615 1 847 9
857 17 21 4161 21 4178 0z m-4339 -1630 c0 -95 9 -128 48 -170 41 -43 81 -56
177 -56 l85 0 0 -75 0 -75 -214 0 -215 0 -20 26 c-20 25 -21 39 -21 230 l0
204 80 0 80 0 0 -84z m4660 -120 c0 -191 -1 -205 -21 -230 l-20 -26 -215 0
-214 0 0 75 0 75 84 0 c95 0 128 9 170 48 43 41 56 81 56 177 l0 85 80 0 80 0
0 -204z"/>
<path d="M669 3249 c-25 -9 -49 -45 -49 -73 0 -7 9 -25 21 -40 39 -50 129 -23
129 38 0 38 -10 56 -41 71 -15 8 -29 15 -31 14 -2 0 -15 -5 -29 -10z"/>
<path d="M984 3250 c-26 -10 -54 -48 -54 -71 0 -9 9 -28 21 -43 l20 -26 1589
0 1589 0 20 26 c27 35 26 57 -3 91 l-24 28 -1569 2 c-871 1 -1578 -2 -1589 -7z"/>
<path d="M4395 3248 c-30 -16 -45 -39 -45 -70 0 -65 88 -94 129 -42 12 15 21
33 21 40 0 29 -25 64 -53 74 -16 5 -30 10 -31 10 -1 0 -10 -6 -21 -12z"/>
<path d="M1388 2910 l-28 -21 0 -320 c0 -306 1 -320 20 -339 18 -18 33 -20
160 -20 154 0 192 9 243 58 87 82 98 213 26 304 l-29 37 16 58 c13 46 14 67 5
98 -16 59 -45 101 -92 132 -40 26 -50 28 -168 31 -117 4 -128 2 -153 -18z
m237 -136 c27 -11 38 -53 20 -80 -13 -21 -23 -24 -75 -24 l-60 0 0 55 0 55 49
0 c27 0 57 -3 66 -6z m63 -289 c18 -22 22 -35 18 -59 -10 -51 -38 -66 -122
-66 l-74 0 0 81 0 82 77 -5 c69 -5 79 -8 101 -33z"/>
<path d="M2255 2916 c-194 -61 -302 -251 -250 -441 43 -158 181 -265 344 -265
37 0 88 7 114 16 51 17 132 83 142 115 10 29 -12 74 -42 88 -32 14 -59 6 -101
-30 -40 -35 -67 -43 -138 -37 -60 5 -110 38 -151 98 -86 126 6 302 167 318 37
3 61 -2 109 -24 72 -32 107 -27 129 19 21 43 7 74 -44 107 -76 48 -194 63
-279 36z"/>
<path d="M3205 2915 c-51 -18 -119 -92 -132 -143 -29 -115 96 -157 142 -46 26
63 102 70 134 13 26 -47 -18 -109 -78 -109 -40 0 -72 -60 -55 -105 8 -19 55
-45 83 -45 22 0 61 -44 61 -70 0 -10 -9 -29 -21 -44 -41 -52 -129 -19 -129 50
0 42 -40 70 -90 65 -22 -3 -60 -49 -60 -74 0 -76 61 -165 135 -198 125 -57
275 20 306 155 11 49 10 64 -4 110 -10 30 -24 59 -32 66 -13 10 -11 18 13 59
21 37 27 58 27 106 -2 160 -149 263 -300 210z"/>
<path d="M3795 2916 c-52 -20 -120 -92 -136 -146 -11 -36 -11 -46 2 -68 33
-59 108 -51 135 13 36 87 144 80 144 -9 0 -38 -28 -83 -155 -256 -51 -69 -98
-136 -104 -148 -16 -30 -7 -65 21 -92 20 -18 35 -20 195 -20 171 0 174 0 198
25 14 13 25 36 25 50 0 14 -11 37 -25 50 -22 23 -32 25 -114 25 l-90 0 77 108
c102 141 125 196 120 278 -3 46 -11 72 -31 102 -53 81 -172 121 -262 88z"/>
<path d="M871 2903 c-19 -17 -251 -604 -251 -637 0 -28 41 -66 71 -66 48 0 67
16 90 80 l22 60 121 0 121 0 25 -62 c19 -48 31 -65 53 -72 37 -13 79 3 95 37
12 25 5 50 -102 334 -76 202 -123 314 -137 326 -12 9 -36 17 -54 17 -18 0 -42
-8 -54 -17z m93 -346 l25 -67 -64 0 -65 0 11 28 c6 15 20 51 31 81 23 61 23
61 62 -42z"/>
<path d="M4247 2903 c-8 -10 -19 -30 -22 -45 -10 -40 39 -88 89 -88 l36 0 0
-264 c0 -241 2 -266 18 -287 27 -33 78 -30 109 5 l23 27 0 308 c0 382 8 361
-139 361 -81 0 -101 -3 -114 -17z"/>
<path d="M2670 2640 c-22 -22 -26 -60 -10 -90 14 -27 64 -40 150 -40 86 0 136
13 150 40 16 30 12 68 -10 90 -18 18 -33 20 -140 20 -107 0 -122 -2 -140 -20z"/>
<path d="M641 1984 c-12 -15 -21 -38 -21 -51 0 -32 42 -73 75 -73 35 0 75 42
75 78 0 65 -89 97 -129 46z"/>
<path d="M953 1984 c-20 -20 -24 -31 -19 -57 14 -67 -126 -62 1626 -62 1752 0
1612 -5 1626 62 5 26 1 37 -19 57 l-26 26 -1581 0 -1581 0 -26 -26z"/>
<path d="M4372 1987 c-30 -31 -28 -72 4 -104 20 -20 31 -24 57 -19 64 12 87
77 42 121 -31 32 -74 33 -103 2z"/>
</g>
</svg>
