<?xml version="1.0" standalone="no"?>
<!DOCTYPE svg PUBLIC "-//W3C//DTD SVG 20010904//EN"
 "http://www.w3.org/TR/2001/REC-SVG-20010904/DTD/svg10.dtd">
<svg version="1.0" xmlns="http://www.w3.org/2000/svg"
 width="512.000000pt" height="512.000000pt" viewBox="0 0 512.000000 512.000000"
 preserveAspectRatio="xMidYMid meet">

<g transform="translate(0.000000,512.000000) scale(0.100000,-0.100000)"
fill="#000000" stroke="none">
<path d="M2098 5111 c-94 -31 -158 -116 -158 -212 0 -91 19 -120 188 -291 85
-87 154 -159 151 -161 -2 -2 -38 -11 -79 -20 -41 -10 -113 -33 -160 -52 -47
-19 -92 -35 -100 -35 -8 0 -49 14 -90 31 -103 42 -231 74 -282 70 -26 -2 -58
-41 -58 -71 0 -37 36 -67 95 -80 77 -17 125 -32 125 -40 0 -4 -44 -18 -97 -31
-89 -22 -119 -24 -318 -24 -196 0 -230 3 -312 24 -51 12 -95 26 -98 31 -8 12
159 50 268 60 115 10 137 23 137 80 0 57 -25 73 -109 71 -133 -3 -319 -46
-453 -105 -47 -21 -57 -22 -78 -11 -154 80 -551 151 -627 111 -48 -24 -56 -66
-23 -108 18 -23 29 -26 122 -32 176 -12 360 -48 341 -67 -19 -19 -174 -50
-273 -55 -58 -3 -120 -7 -138 -10 -65 -10 -93 -77 -52 -122 19 -20 31 -22 117
-22 166 0 363 42 523 112 34 15 38 15 130 -21 195 -76 321 -95 583 -88 219 6
303 21 467 86 l101 39 53 -23 c44 -19 100 -38 243 -81 9 -2 7 -15 -7 -46 -66
-145 43 -311 204 -311 78 0 120 24 226 128 l97 95 49 -49 c36 -36 62 -53 97
-62 44 -11 48 -14 58 -55 14 -54 71 -121 123 -145 54 -24 130 -24 186 2 28 13
92 67 177 152 l133 131 248 -246 c236 -235 250 -247 304 -263 148 -42 287 61
288 213 0 29 -7 69 -15 90 -10 22 -79 100 -176 197 l-159 161 60 12 c73 16
202 58 252 83 l37 19 84 -34 c154 -64 311 -95 479 -96 87 0 99 2 118 22 41 45
13 112 -52 122 -18 3 -80 7 -138 10 -99 5 -254 36 -273 55 -19 19 165 55 341
67 93 6 104 9 122 32 33 42 25 84 -23 108 -24 13 -48 15 -121 9 -188 -13 -342
-48 -481 -110 -50 -22 -51 -22 -94 -3 -58 24 -176 65 -228 78 l-42 10 19 43
c67 146 -42 311 -205 311 -81 0 -111 -17 -227 -132 l-98 -97 -16 23 c-36 52
-112 101 -156 102 -12 0 -19 11 -24 35 -10 56 -58 119 -113 148 -57 32 -139
36 -198 12 -22 -9 -95 -73 -175 -153 l-138 -136 -243 241 c-133 132 -257 249
-276 258 -39 20 -125 28 -163 16z m329 -383 l243 -243 -50 -50 -50 -50 -240
240 c-213 213 -240 243 -240 272 0 35 38 73 73 73 14 0 104 -82 264 -242z
m812 -4 c12 -15 21 -36 21 -48 0 -14 -128 -149 -397 -418 -361 -362 -401 -398
-430 -398 -43 0 -73 30 -73 72 0 29 38 71 393 425 373 374 394 393 429 393 28
0 42 -6 57 -26z m744 -106 c41 -48 41 -49 -375 -465 -216 -216 -401 -396 -411
-399 -51 -16 -105 32 -92 83 7 29 723 758 780 794 35 23 72 18 98 -13z m-536
-104 c48 -48 36 -66 -217 -318 -216 -217 -231 -230 -266 -230 -26 0 -42 7 -55
23 -41 51 -35 60 219 313 259 260 266 264 319 212z m-1005 -221 c18 -16 17
-18 -19 -55 -26 -27 -46 -38 -66 -38 -40 0 -207 40 -207 49 0 10 68 30 155 46
96 18 116 18 137 -2z m1691 -15 c48 -11 85 -23 82 -28 -6 -9 -152 -44 -228
-55 -39 -5 -53 -3 -68 11 -19 17 -19 18 22 60 47 48 36 47 192 12z m-101 -405
c251 -251 258 -260 222 -311 -11 -16 -25 -22 -52 -22 -35 0 -50 13 -274 237
l-238 238 47 47 c26 27 50 48 53 48 2 0 112 -107 242 -237z"/>
<path d="M1474 3416 c-61 -19 -101 -54 -129 -110 -29 -59 -33 -137 -10 -194
10 -22 82 -103 187 -208 l170 -172 -58 14 c-33 7 -118 18 -189 23 -258 20
-507 -18 -704 -107 l-44 -20 -51 22 c-135 60 -274 92 -449 106 -126 9 -170 2
-187 -30 -16 -31 -11 -65 13 -88 19 -18 42 -23 155 -31 133 -11 312 -45 312
-61 0 -16 -185 -52 -315 -61 -110 -9 -133 -13 -152 -31 -24 -23 -29 -57 -13
-88 18 -33 63 -40 191 -30 178 15 305 45 449 107 l45 20 69 -29 c139 -57 257
-84 424 -98 107 -9 322 0 408 16 l34 6 -20 -43 c-67 -149 40 -312 205 -312 81
0 111 17 226 130 l96 93 49 -49 c36 -35 64 -54 96 -62 43 -12 47 -16 59 -58
26 -91 118 -161 214 -161 82 0 127 29 272 173 l133 131 243 -241 c133 -132
256 -248 273 -257 74 -37 163 -29 236 21 48 32 88 111 88 171 0 97 -12 115
-197 303 l-174 176 63 -14 c35 -7 120 -18 189 -23 248 -20 502 20 698 108 44
20 44 20 90 0 143 -63 271 -93 450 -108 128 -10 173 -3 191 30 16 31 11 65
-12 88 -20 18 -43 22 -153 31 -147 11 -323 47 -307 63 19 19 167 48 302 58
115 9 138 14 157 32 24 23 29 57 13 88 -17 32 -61 39 -187 30 -175 -14 -314
-46 -449 -106 l-51 -22 -44 20 c-132 59 -280 95 -449 107 -109 8 -304 1 -398
-14 l-42 -8 20 44 c67 148 -41 312 -205 312 -81 0 -111 -17 -226 -130 l-96
-93 -49 49 c-36 36 -63 53 -96 61 -43 11 -47 15 -59 58 -26 92 -118 162 -214
162 -82 0 -127 -29 -272 -173 l-133 -131 -243 241 c-133 132 -257 248 -275
257 -45 23 -119 28 -168 12z m338 -384 l238 -237 -50 -50 -50 -50 -240 240
c-210 210 -240 244 -240 271 0 44 43 78 85 67 11 -3 127 -111 257 -241z m803
3 c29 -28 31 -45 11 -83 -22 -42 -757 -770 -789 -782 -32 -11 -80 7 -91 35
-17 46 -5 61 391 457 432 432 425 427 478 373z m755 -115 c25 -48 19 -56 -387
-462 -432 -432 -425 -427 -478 -373 -29 28 -31 45 -11 83 21 39 756 770 786
780 31 11 77 -3 90 -28z m-545 -95 c51 -50 46 -59 -213 -317 -258 -259 -267
-264 -317 -213 -51 50 -46 59 213 317 258 259 267 264 317 213z m-1320 -211
c71 -7 225 -44 225 -54 0 -15 -182 -51 -300 -60 -139 -11 -326 2 -436 30 -112
29 -112 31 2 60 127 33 328 43 509 24z m2520 -5 c87 -12 185 -39 185 -50 0 -5
-2 -9 -3 -9 -2 0 -39 -9 -81 -20 -110 -28 -298 -41 -436 -30 -118 9 -300 45
-300 60 0 14 180 52 285 60 112 8 245 4 350 -11z m-613 -426 c254 -254 260
-263 220 -314 -13 -15 -30 -22 -51 -22 -29 0 -58 25 -272 239 l-239 239 47 47
c26 27 50 48 53 48 2 0 112 -107 242 -237z"/>
<path d="M851 1725 c-53 -16 -107 -66 -132 -120 -23 -49 -24 -133 -4 -183 10
-22 79 -100 176 -197 l159 -161 -60 -12 c-73 -16 -202 -58 -253 -83 l-37 -19
-70 29 c-152 65 -327 101 -491 101 -87 0 -97 -2 -117 -23 -44 -46 -17 -111 50
-121 18 -3 78 -7 133 -10 101 -6 205 -24 260 -46 l30 -12 -40 -14 c-58 -21
-185 -41 -308 -50 -99 -6 -109 -9 -127 -32 -25 -31 -25 -63 -1 -93 18 -23 25
-24 126 -22 177 4 348 41 500 108 l51 22 50 -22 c53 -23 153 -57 221 -75 l42
-10 -19 -43 c-67 -147 41 -311 205 -311 81 0 111 17 227 132 54 53 99 94 101
91 2 -2 13 -18 25 -36 22 -31 111 -83 144 -83 12 0 19 -11 24 -35 10 -56 58
-119 113 -148 57 -32 139 -36 198 -12 22 9 95 73 175 153 l138 136 243 -241
c133 -132 258 -249 277 -259 23 -12 57 -18 100 -19 54 0 73 5 113 28 97 57
136 190 86 290 -12 23 -89 110 -172 194 -83 84 -149 154 -146 156 2 2 31 9 64
16 33 7 109 31 169 54 99 37 112 39 140 28 97 -40 208 -74 294 -91 282 -53
591 -27 834 73 l83 33 50 -21 c154 -68 323 -104 500 -108 101 -2 108 -1 126
22 24 30 24 62 -1 93 -18 23 -28 26 -127 32 -123 9 -250 29 -308 50 l-40 14
30 12 c55 22 159 40 260 46 55 3 115 7 133 10 66 10 94 80 49 122 -21 19 -34
22 -118 22 -161 0 -338 -36 -487 -100 l-69 -29 -69 29 c-115 48 -243 81 -323
83 -69 2 -75 0 -93 -25 -32 -41 -7 -102 45 -112 93 -17 222 -47 230 -55 13
-13 -148 -49 -279 -62 -119 -11 -257 -6 -369 12 -85 14 -175 40 -170 49 7 11
111 37 200 50 90 13 125 36 125 81 0 15 -9 37 -19 50 -17 21 -27 24 -79 22
-88 -3 -227 -37 -342 -82 l-101 -39 -53 23 c-44 19 -100 38 -243 81 -9 2 -7
15 7 46 66 146 -43 312 -204 310 -80 -1 -120 -23 -227 -128 l-97 -96 -42 46
c-31 33 -57 50 -96 63 -52 16 -55 19 -65 59 -14 54 -71 121 -123 145 -54 24
-130 24 -186 -2 -28 -13 -92 -67 -177 -152 l-133 -131 -248 246 c-230 230
-251 247 -301 262 -65 19 -82 19 -140 1z m342 -383 l237 -237 -53 -53 -53 -52
-237 238 c-202 203 -237 243 -237 268 0 47 25 74 68 74 35 0 50 -13 275 -238z
m794 13 c28 -20 37 -59 19 -93 -20 -38 -766 -778 -792 -786 -51 -15 -104 35
-91 86 4 13 183 200 399 416 413 412 414 412 465 377z m753 -115 c12 -12 20
-33 20 -52 0 -29 -38 -71 -393 -425 -373 -374 -394 -393 -429 -393 -41 0 -78
35 -78 74 0 14 128 149 397 418 361 362 401 398 430 398 20 0 41 -8 53 -20z
m-527 -112 c39 -47 31 -58 -221 -310 -258 -259 -267 -264 -317 -213 -51 50
-44 60 193 298 119 121 231 228 247 238 35 23 72 18 98 -13z m-1010 -216 c16
-17 14 -21 -26 -59 -42 -41 -42 -42 -92 -32 -101 18 -185 41 -180 49 8 12 183
51 266 59 9 0 23 -7 32 -17z m1678 -13 c49 -11 91 -24 94 -28 5 -9 -143 -47
-223 -57 -43 -5 -56 -3 -73 11 -19 18 -19 19 18 57 44 45 59 47 184 17z m-88
-407 c225 -225 238 -241 235 -272 -4 -43 -45 -75 -84 -66 -17 5 -114 94 -263
241 l-236 234 50 50 c27 28 52 51 55 51 3 0 112 -107 243 -238z"/>
</g>
</svg>
