<?xml version="1.0" standalone="no"?>
<!DOCTYPE svg PUBLIC "-//W3C//DTD SVG 20010904//EN"
 "http://www.w3.org/TR/2001/REC-SVG-20010904/DTD/svg10.dtd">
<svg version="1.0" xmlns="http://www.w3.org/2000/svg"
 width="512.000000pt" height="512.000000pt" viewBox="0 0 512.000000 512.000000"
 preserveAspectRatio="xMidYMid meet">

<g transform="translate(0.000000,512.000000) scale(0.100000,-0.100000)"
fill="#000000" stroke="none">
<path d="M2370 5114 c-19 -2 -78 -9 -130 -15 -548 -62 -1083 -325 -1489 -730
-405 -406 -651 -906 -732 -1489 -20 -143 -18 -527 4 -670 89 -580 328 -1058
728 -1459 926 -926 2395 -1005 3414 -184 1101 887 1274 2498 388 3598 -409
507 -975 829 -1633 930 -100 15 -472 28 -550 19z m410 -155 c346 -31 710 -149
1002 -324 114 -68 289 -193 303 -215 5 -8 -12 -31 -42 -62 l-49 -49 -89 66
c-233 173 -521 309 -806 379 -194 47 -307 60 -539 60 -232 0 -345 -13 -540
-60 -285 -70 -579 -210 -814 -386 l-79 -60 -51 52 -51 51 40 36 c56 49 255
181 356 236 406 220 891 319 1359 276z m125 -319 c308 -53 572 -158 825 -326
52 -35 109 -75 125 -88 l30 -25 -52 -52 -52 -53 -45 33 c-306 219 -631 345
-985 381 -480 48 -951 -83 -1366 -381 l-46 -33 -49 49 c-28 27 -50 52 -50 55
0 12 145 114 253 178 250 148 551 248 848 281 133 15 425 6 564 -19z m-157
-281 c282 -30 563 -129 792 -279 146 -95 140 -85 79 -146 l-52 -52 -80 54
c-557 375 -1279 377 -1843 6 l-92 -60 -51 52 c-61 61 -67 51 79 146 337 220
766 323 1168 279z m-1358 -524 l475 -475 -53 -52 -52 -53 -477 477 -478 478
50 50 c27 27 52 50 55 50 3 0 219 -214 480 -475z m2875 425 l50 -50 -478 -478
-477 -477 -52 53 -53 52 475 475 c261 261 477 475 480 475 3 0 28 -23 55 -50z
m-3395 -325 l154 -154 -33 -45 c-219 -306 -345 -631 -381 -985 -48 -480 83
-951 381 -1367 l33 -45 -53 -52 -52 -52 -25 30 c-13 17 -53 73 -88 125 -450
675 -473 1548 -61 2245 70 118 75 143 33 178 -23 20 -66 22 -89 4 -25 -19 -96
-140 -165 -281 -225 -461 -282 -1008 -158 -1515 70 -285 206 -573 379 -806
l66 -89 -51 -50 -51 -51 -36 40 c-92 104 -246 359 -321 530 -304 694 -259
1516 119 2163 83 143 218 332 237 332 4 0 77 -70 162 -155z m3591 103 c132
-165 282 -433 355 -633 108 -298 149 -527 149 -845 0 -318 -41 -547 -149 -845
-74 -202 -255 -521 -369 -650 l-36 -40 -51 51 -52 52 59 78 c220 290 369 647
430 1029 24 153 24 497 0 650 -60 379 -204 728 -422 1020 l-66 88 48 49 c26
26 51 48 55 48 4 0 26 -24 49 -52z m-1610 3 c123 -25 260 -71 367 -123 92 -45
232 -133 232 -146 0 -4 -22 -30 -49 -56 l-50 -49 -63 41 c-262 171 -607 244
-923 197 -193 -29 -383 -99 -533 -197 l-63 -41 -50 49 c-27 26 -49 52 -49 56
0 14 149 107 238 150 146 69 300 112 507 142 70 10 344 -4 436 -23z m1406
-228 c545 -751 549 -1740 11 -2491 -33 -45 -63 -82 -67 -82 -4 0 -29 22 -56
50 l-49 49 33 46 c218 304 345 631 381 984 48 479 -84 952 -381 1366 l-33 46
49 49 c27 28 52 50 56 50 4 0 29 -30 56 -67z m-1517 -57 c158 -24 327 -85 446
-161 l57 -37 -53 -53 -53 -54 -71 39 c-167 91 -304 125 -506 125 -202 0 -348
-37 -516 -130 l-61 -34 -53 54 -53 54 49 31 c228 146 534 208 814 166z m-1562
-280 c-370 -562 -370 -1270 0 -1832 l60 -92 -52 -51 c-61 -61 -51 -67 -146 79
-277 424 -358 952 -225 1458 50 188 164 426 278 581 l39 53 53 -52 53 -52 -60
-92z m2881 96 c148 -223 237 -445 288 -722 24 -132 24 -448 0 -580 -50 -271
-139 -498 -280 -710 -82 -123 -72 -119 -133 -59 l-52 51 60 92 c180 273 278
597 278 916 0 319 -98 643 -278 916 l-60 91 51 51 c28 28 54 49 59 46 5 -3 35
-45 67 -92z m-1274 -131 c251 -65 472 -245 586 -476 74 -150 92 -230 92 -405
0 -175 -18 -255 -92 -405 -114 -231 -332 -409 -586 -477 -115 -31 -337 -31
-450 0 -255 69 -472 246 -586 477 -74 151 -93 230 -93 405 0 175 19 254 93
405 125 254 357 430 647 490 96 20 285 13 389 -14z m-1381 -40 l49 -50 -41
-63 c-171 -262 -244 -607 -197 -923 29 -193 99 -383 197 -533 l41 -63 -49 -50
c-26 -27 -52 -49 -56 -49 -13 0 -101 140 -147 233 -101 207 -146 411 -146 657
0 244 44 444 143 652 43 89 136 238 150 238 4 0 30 -22 56 -49z m2416 -11 c98
-145 179 -341 221 -540 33 -151 33 -429 0 -580 -30 -142 -72 -265 -131 -382
-50 -100 -125 -218 -138 -218 -4 0 -30 22 -56 49 l-49 49 40 64 c92 145 156
304 190 475 24 122 24 384 0 506 -34 171 -108 353 -194 484 l-36 54 48 49 c27
28 53 50 57 50 4 0 26 -27 48 -60z m-2185 -314 c-93 -168 -130 -314 -130 -516
0 -202 37 -348 130 -516 l34 -61 -54 -53 -54 -53 -31 49 c-111 174 -180 417
-180 634 0 217 69 460 180 634 l31 49 54 -53 54 -53 -34 -61z m2009 19 c183
-373 162 -830 -54 -1169 l-31 -49 -53 52 -53 53 46 91 c108 214 143 428 106
654 -19 119 -48 206 -106 319 l-46 92 51 51 51 52 22 -28 c12 -15 42 -68 67
-118z m-1829 -1285 l50 -50 -478 -478 -477 -477 -52 53 -53 52 475 475 c261
261 477 475 480 475 3 0 28 -23 55 -50z m2025 -425 l475 -475 -53 -52 -52 -53
-477 477 -478 478 50 50 c27 27 52 50 55 50 3 0 219 -214 480 -475z m-1607
167 c37 -12 109 -29 160 -37 226 -37 440 -2 654 106 l91 46 53 -53 52 -53 -49
-31 c-281 -180 -664 -228 -994 -125 -86 27 -238 98 -293 137 l-29 21 52 52 52
52 91 -46 c51 -26 122 -57 160 -69z m-399 -141 c143 -90 303 -154 473 -188
132 -27 394 -24 530 5 164 36 332 105 460 190 l54 35 49 -48 c28 -27 50 -53
50 -57 0 -13 -118 -88 -218 -138 -117 -59 -240 -101 -382 -131 -150 -32 -429
-33 -577 -1 -143 31 -270 74 -384 131 -98 50 -219 126 -219 139 0 7 91 102 99
102 2 0 31 -17 65 -39z m-10 -338 c213 -107 493 -173 736 -173 319 0 643 98
916 278 l92 60 51 -52 c60 -61 64 -51 -59 -133 -279 -185 -589 -285 -930 -300
-340 -14 -658 65 -993 248 -51 28 -60 30 -86 19 -38 -15 -58 -61 -43 -95 33
-72 409 -234 657 -284 556 -111 1096 9 1571 350 l45 33 52 -53 52 -52 -30 -25
c-64 -52 -229 -157 -329 -208 -710 -364 -1555 -300 -2203 166 -46 33 -83 62
-83 66 0 4 70 77 156 163 l157 157 91 -60 c50 -33 131 -80 180 -105z m-608
-329 c290 -216 641 -361 1019 -421 153 -24 497 -24 650 0 382 61 733 207 1029
429 l79 60 50 -50 c30 -31 47 -54 42 -62 -12 -20 -185 -144 -285 -204 -280
-169 -584 -276 -935 -327 -116 -17 -482 -18 -600 -1 -286 40 -514 109 -761
228 -130 63 -363 210 -439 277 l-40 35 50 51 c27 28 50 51 51 51 1 0 42 -29
90 -66z"/>
</g>
</svg>
