<?xml version="1.0" standalone="no"?>
<!DOCTYPE svg PUBLIC "-//W3C//DTD SVG 20010904//EN"
 "http://www.w3.org/TR/2001/REC-SVG-20010904/DTD/svg10.dtd">
<svg version="1.0" xmlns="http://www.w3.org/2000/svg"
 width="512.000000pt" height="512.000000pt" viewBox="0 0 512.000000 512.000000"
 preserveAspectRatio="xMidYMid meet">

<g transform="translate(0.000000,512.000000) scale(0.100000,-0.100000)"
fill="#000000" stroke="none">
<path d="M669 5092 c-34 -17 -65 -44 -84 -71 l-30 -43 -6 -256 c-4 -141 -7
-651 -8 -1133 -1 -781 -3 -878 -16 -883 -31 -11 -45 -71 -45 -186 0 -113 11
-162 43 -189 16 -12 17 -77 17 -753 l0 -739 -129 -182 c-209 -296 -191 -257
-191 -421 0 -122 3 -145 20 -173 40 -66 5 -64 786 -61 l706 3 34 37 34 38 0
150 0 150 -84 122 c-45 68 -117 172 -160 232 l-76 109 0 322 c0 309 -1 322
-20 343 -28 30 -82 30 -110 0 -19 -21 -20 -34 -20 -320 l0 -298 -317 2 -318 3
-3 708 -2 707 320 0 320 0 0 -263 c0 -251 1 -264 20 -285 28 -30 82 -30 110 0
19 21 20 34 20 287 l0 265 28 29 c27 28 27 28 27 177 0 149 0 149 -27 177
l-28 29 0 172 0 172 111 0 c133 0 176 11 233 61 40 36 54 66 286 626 134 323
248 594 253 601 7 9 61 12 207 12 l198 0 31 -54 c51 -91 128 -136 233 -136 63
0 63 0 88 -41 27 -44 95 -94 141 -104 l29 -7 0 -176 c0 -149 3 -183 18 -212
24 -48 75 -80 128 -80 43 0 44 -1 44 -33 0 -18 7 -57 16 -87 13 -43 29 -66 85
-121 58 -57 69 -73 69 -101 0 -18 -4 -40 -10 -48 -8 -12 -11 -12 -27 2 -33 29
-61 31 -100 8 -41 -24 -53 -16 -53 33 0 35 -40 77 -73 77 -42 0 -77 -36 -77
-79 0 -45 16 -96 42 -134 11 -15 18 -31 16 -36 -2 -5 -135 -145 -296 -310
l-294 -301 -236 0 c-217 0 -240 -2 -269 -20 -65 -39 -63 -19 -63 -660 0 -638
-1 -627 59 -663 27 -16 96 -17 878 -17 811 0 851 1 866 18 24 27 22 85 -4 108
-20 18 -51 19 -835 22 l-814 2 0 530 0 530 1195 0 1195 0 0 -529 0 -530 -234
-3 c-213 -3 -236 -5 -255 -22 -27 -25 -29 -86 -3 -109 16 -15 51 -17 286 -17
296 0 308 2 340 62 16 31 17 77 14 630 l-3 598 -33 32 -32 33 -249 3 -249 3
-298 305 c-257 264 -296 308 -286 322 54 74 68 182 33 258 -18 39 -85 114
-103 114 -16 0 -48 65 -48 98 0 31 1 32 43 32 51 0 100 28 127 72 18 30 20 51
20 216 0 167 1 182 18 182 36 0 123 61 150 105 l27 44 65 1 c109 1 188 49 236
143 l24 47 128 0 c145 0 188 13 236 71 52 62 56 81 56 307 l0 208 -33 54 c-25
42 -44 61 -86 82 l-53 28 -1933 0 -1933 0 -53 -28z m3915 -143 c22 -18 26 -28
26 -75 l0 -54 -1239 0 c-1238 0 -1238 0 -1265 -21 -33 -26 -36 -79 -6 -109 19
-19 33 -20 405 -20 l384 0 -42 -42 c-23 -24 -49 -58 -56 -75 l-13 -33 -865 0
-864 0 3 73 3 72 393 5 c375 5 394 6 408 24 23 33 18 82 -12 105 -26 20 -37
21 -408 21 -219 0 -396 -4 -415 -10 -39 -11 -86 -52 -107 -93 -8 -15 -18 -66
-21 -113 l-6 -84 -93 0 -94 0 0 202 c0 193 1 203 22 225 l21 23 1907 0 1907 0
27 -21z m-687 -321 c-23 -24 -49 -58 -56 -75 l-13 -33 -273 0 -272 0 -18 41
c-11 22 -37 56 -59 75 l-40 34 387 0 386 0 -42 -42z m713 -13 c0 -87 -13 -95
-158 -95 l-119 0 -18 41 c-11 22 -37 56 -59 75 l-40 34 197 0 197 0 0 -55z
m-1507 -85 c34 -27 48 -79 36 -125 -25 -91 -164 -103 -208 -18 -24 47 -10 111
33 145 30 25 106 24 139 -2z m1050 0 c34 -27 48 -79 36 -125 -25 -91 -164
-103 -208 -18 -24 47 -10 111 33 145 30 25 106 24 139 -2z m-2823 -980 l0
-820 -320 0 -320 0 0 813 c0 448 3 817 7 820 3 4 147 7 320 7 l313 0 0 -820z
m863 813 c8 -15 -452 -1108 -474 -1125 -17 -15 -41 -18 -130 -18 l-109 0 0
575 0 575 354 0 c195 0 357 -3 359 -7z m1657 -49 c28 -49 30 -60 20 -84 -21
-52 -40 -55 -321 -55 l-257 0 -26 24 c-38 36 -39 52 -5 114 l31 57 263 0 263
0 32 -56z m-180 -449 l0 -155 -115 0 -115 0 0 155 0 155 115 0 115 0 0 -155z
m187 -1162 l261 -268 -555 -3 c-306 -1 -558 0 -561 3 -3 2 111 124 253 270
254 261 259 265 299 265 41 1 43 -1 303 -267z m-2467 -183 l0 -60 -380 0 -380
0 0 60 0 60 380 0 380 0 0 -60z m120 -1982 l140 -202 0 -93 0 -93 -640 0 -640
0 0 94 0 93 141 202 142 201 358 0 358 0 141 -202z"/>
<path d="M2601 2104 c-20 -26 -21 -38 -21 -355 0 -180 3 -335 6 -344 10 -24
60 -46 89 -39 54 13 55 20 55 384 l0 337 -23 21 c-33 31 -80 29 -106 -4z"/>
<path d="M2961 2104 c-20 -26 -21 -38 -21 -355 0 -180 3 -335 6 -344 10 -24
60 -46 89 -39 54 13 55 20 55 384 l0 337 -23 21 c-33 31 -80 29 -106 -4z"/>
<path d="M3321 2104 c-20 -26 -21 -38 -21 -355 0 -180 3 -335 6 -344 10 -24
60 -46 89 -39 54 13 55 20 55 384 l0 337 -23 21 c-33 31 -80 29 -106 -4z"/>
<path d="M3681 2104 c-20 -26 -21 -38 -21 -355 0 -180 3 -335 6 -344 10 -24
60 -46 89 -39 54 13 55 20 55 384 l0 337 -23 21 c-33 31 -80 29 -106 -4z"/>
<path d="M4041 2104 c-20 -26 -21 -38 -21 -355 0 -180 3 -335 6 -344 10 -24
60 -46 89 -39 54 13 55 20 55 384 l0 337 -23 21 c-33 31 -80 29 -106 -4z"/>
<path d="M4401 2104 c-20 -26 -21 -38 -21 -355 0 -180 3 -335 6 -344 10 -24
60 -46 89 -39 54 13 55 20 55 384 l0 337 -23 21 c-33 31 -80 29 -106 -4z"/>
</g>
</svg>
